<svg width="195" height="71" viewBox="0 0 195 71" fill="none" xmlns="http://www.w3.org/2000/svg">
<g filter="url(#filter0_d_7_7)">
<path d="M52.4062 47.3438C51.2396 47.2812 50.1042 47.1979 49 47.0938C47.9167 46.9688 46.9271 46.8021 46.0312 46.5938C45.1354 46.3854 44.375 46.1146 43.75 45.7812C43.1458 45.4271 42.75 44.9896 42.5625 44.4688L25.2812 1.78125C24.9271 1.80208 24.5833 1.94792 24.25 2.21875C24.1042 4.80208 23.3125 6.875 21.875 8.4375L22.5938 10.2812L9.40625 43.4375C8.57292 45.5208 6.01042 46.8229 1.71875 47.3438C1.59375 47.6354 1.53125 47.8958 1.53125 48.125C1.53125 48.375 1.59375 48.625 1.71875 48.875C4.09375 48.7917 6 48.7292 7.4375 48.6875C8.89583 48.6458 9.89583 48.625 10.4375 48.625C10.9167 48.625 12 48.6458 13.6875 48.6875C15.3958 48.7292 17.7083 48.7917 20.625 48.875C20.75 48.625 20.8125 48.375 20.8125 48.125C20.8125 47.8958 20.75 47.6354 20.625 47.3438C18.8958 47.1771 17.4896 47 16.4062 46.8125C15.3229 46.6042 14.4792 46.3854 13.875 46.1562C13.2708 45.9271 12.8646 45.6771 12.6562 45.4062C12.4479 45.1146 12.3438 44.7917 12.3438 44.4375C12.3438 44.2083 12.3854 43.9792 12.4688 43.75L17.0312 32.3125C19.3438 32.2708 21.2083 32.2396 22.625 32.2188C24.0625 32.1979 25.0521 32.1875 25.5938 32.1875C26.7812 32.1875 27.8333 32.1979 28.75 32.2188C29.6875 32.2188 30.4896 32.2292 31.1562 32.25L35.6875 43.75C35.7917 44.0625 35.8438 44.3021 35.8438 44.4688C35.8438 45.0312 35.5521 45.5312 34.9688 45.9688C34.4062 46.4062 33.7083 46.7083 32.875 46.875L29.5 47.3438C29.375 47.6354 29.3125 47.8958 29.3125 48.125C29.3125 48.375 29.375 48.625 29.5 48.875C31.2708 48.8125 33.0625 48.7604 34.875 48.7188C36.7083 48.6771 38.5833 48.6562 40.5 48.6562C42.4167 48.6562 44.3542 48.6771 46.3125 48.7188C48.2917 48.7604 50.3229 48.8125 52.4062 48.875C52.5521 48.5833 52.625 48.3333 52.625 48.125C52.625 48 52.6042 47.875 52.5625 47.75C52.5208 47.625 52.4688 47.4896 52.4062 47.3438ZM25.5938 29.75C22.5729 29.75 20.0833 29.7083 18.125 29.625L24.0625 14.3125H24.1875L30.1562 29.6875C29.0312 29.7292 27.5104 29.75 25.5938 29.75ZM24.125 17.5938L19.9688 28.4062C22.4896 28.5312 25.2604 28.5521 28.2812 28.4688L24.125 17.5938ZM53.375 46.1875C53.8958 47.4375 53.875 48.7604 53.3125 50.1562H28.5312C28.0312 48.7188 28.0312 47.3958 28.5312 46.1875C30.8021 46.0625 32.4062 45.8333 33.3438 45.5C34.2812 45.1458 34.6042 44.5833 34.3125 43.8125L30.2188 33.4688C26.3646 33.3229 22.2396 33.3646 17.8438 33.5938L13.8125 43.9375C13.6875 44.2917 13.7812 44.6146 14.0938 44.9062C14.4271 45.1771 14.9583 45.3958 15.6875 45.5625C16.4167 45.7292 17.2708 45.8646 18.25 45.9688C19.2292 46.0729 20.3333 46.1458 21.5625 46.1875C22.0833 47.4375 22.0625 48.7604 21.5 50.1562C14.6667 49.9062 7.78125 49.9062 0.84375 50.1562C0.28125 48.7604 0.260417 47.4375 0.78125 46.1875C5.07292 45.6875 7.5 44.75 8.0625 43.375L21.25 10.2188C21.1667 10.0521 21 9.67708 20.75 9.09375C20.5208 8.48958 20.3854 8.09375 20.3438 7.90625C21.9688 6.26042 22.8646 4.13542 23.0312 1.53125C24.8646 0.635417 27.0208 0.125 29.5 0L47.0312 43.5C47.4271 44.4792 48.0521 45.1354 48.9062 45.4688C49.7604 45.7812 51.25 46.0208 53.375 46.1875ZM64.5312 30.5C64.5312 27.6042 65.0729 25.5104 66.1562 24.2188C67.2604 22.9062 68.6458 22.25 70.3125 22.25C71.5417 22.25 72.6771 22.8438 73.7188 24.0312C74.7812 25.1979 75.3125 27.1667 75.3125 29.9375C75.3125 35.875 73.6875 38.8438 70.4375 38.8438C66.5 38.8438 64.5312 36.0625 64.5312 30.5ZM64.4062 56.9375C64.4062 54.6458 65.7292 52.7917 68.375 51.375C70.0417 51.2083 72.6042 51.125 76.0625 51.125C78.5417 51.125 80.1979 51.5833 81.0312 52.5C81.8646 53.4167 82.2812 54.75 82.2812 56.5C82.2812 58 81.4792 59.5521 79.875 61.1562C78.2708 62.7812 75.875 63.5938 72.6875 63.5938C69.8125 63.5938 67.7083 62.9375 66.375 61.625C65.0625 60.3333 64.4062 58.7708 64.4062 56.9375ZM84.5 21.5625C85.0625 21.6042 85.3438 21.8958 85.3438 22.4375C85.3438 23.125 84.9167 23.5312 84.0625 23.6562C83.3333 23.7396 82.4375 23.5729 81.375 23.1562C80.8125 22.9479 80.0938 22.6562 79.2188 22.2812C78.3438 21.8854 77.7292 21.6146 77.375 21.4688C77.0208 21.3021 76.5312 21.1146 75.9062 20.9062C75.2812 20.6979 74.7396 20.5625 74.2812 20.5C73.8438 20.4375 73.2917 20.375 72.625 20.3125C71.9792 20.25 71.25 20.2188 70.4375 20.2188C67.2708 20.2188 64.5833 21.2812 62.375 23.4062C60.1875 25.5312 59.0938 27.875 59.0938 30.4375C59.0938 34.5833 60.9792 37.6979 64.75 39.7812C61.375 42.3021 59.6875 44.5625 59.6875 46.5625C59.6875 49.0833 61.6875 50.6458 65.6875 51.25C61.6042 53.4583 59.5625 56.1042 59.5625 59.1875C59.5625 61.1875 60.5 62.8542 62.375 64.1875C64.25 65.5417 67 66.2188 70.625 66.2188C74.9375 66.2188 78.5833 64.7917 81.5625 61.9375C84.5625 59.0833 86.0625 56.1771 86.0625 53.2188C86.0625 48.4479 83.1562 46.0625 77.3438 46.0625C76.6979 46.0625 75.8438 46.0833 74.7812 46.125C73.7188 46.1667 72.9896 46.1875 72.5938 46.1875C69.4062 46.1875 67.1562 45.9792 65.8438 45.5625C64.5521 45.125 63.9062 44.4375 63.9062 43.5C63.9062 42.3125 64.8229 41.3333 66.6562 40.5625C67.9271 40.7708 69.2708 40.875 70.6875 40.875C73.5 40.875 75.875 39.8958 77.8125 37.9375C79.7708 35.9792 80.75 33.3333 80.75 30C80.75 27.3542 80.25 25.3542 79.25 24L79.4062 23.8438C79.7396 24.0729 80.1875 24.3958 80.75 24.8125C81.3333 25.2083 81.7708 25.4896 82.0625 25.6562C82.375 25.8229 82.7708 25.9896 83.25 26.1562C83.75 26.3229 84.2396 26.4062 84.7188 26.4062C85.5104 26.4062 86.1771 26.1042 86.7188 25.5C87.2604 24.875 87.5312 24.1354 87.5312 23.2812C87.5312 22.3854 87.2708 21.6354 86.75 21.0312C86.25 20.4062 85.5 20.0938 84.5 20.0938C84.2083 20.6354 84.2083 21.125 84.5 21.5625ZM84.9062 27.6875C85.0729 28.375 85.1562 29.1458 85.1562 30C85.1562 33.7083 83.9688 36.6667 81.5938 38.875C79.2396 41.0625 76.3542 42.1562 72.9375 42.1562H69.0312C68.4271 42.8438 68.25 43.4583 68.5 44C68.7708 44.5208 69.2708 44.7812 70 44.7812H80.4688C87.1354 44.7812 90.4688 47.5938 90.4688 53.2188C90.4688 54.7188 90.0208 56.2917 89.125 57.9375C88.2292 59.5833 86.9792 61.1146 85.375 62.5312C83.7708 63.9688 81.6667 65.1562 79.0625 66.0938C76.4583 67.0312 73.6458 67.5 70.625 67.5C66.5625 67.5 63.4896 66.7083 61.4062 65.125C59.3229 63.5625 58.2812 61.5833 58.2812 59.1875C58.2812 56.5417 59.6667 54.0833 62.4375 51.8125C59.75 50.875 58.4062 49.125 58.4062 46.5625C58.4062 44.3542 59.7708 42.1146 62.5 39.8438C59.375 37.5938 57.8125 34.4583 57.8125 30.4375C57.8125 27.5833 59.0417 24.9583 61.5 22.5625C63.9583 20.1458 66.9375 18.9375 70.4375 18.9375C73.0417 18.9375 74.9583 19.0729 76.1875 19.3438C77.4375 19.6146 79 20.1354 80.875 20.9062C81.8125 19.5104 83.0208 18.8125 84.5 18.8125C85.9583 18.8125 87.0417 19.2396 87.75 20.0938C88.4583 20.9479 88.8125 22.0104 88.8125 23.2812C88.8125 24.5104 88.4583 25.5521 87.75 26.4062C87.0417 27.2604 86.0938 27.6875 84.9062 27.6875ZM68.8438 56.9375C68.8438 58.2708 69.2292 59.4375 70 60.4375C70.7917 61.4375 72.0625 62.0417 73.8125 62.25C76.2083 62.0417 78 61.3021 79.1875 60.0312C80.3958 58.7812 81 57.6042 81 56.5C81 55.2083 80.7083 54.1979 80.125 53.4688C79.5417 52.7604 78.4271 52.4062 76.7812 52.4062C74.8021 52.4062 72.8542 52.4896 70.9375 52.6562C69.5417 53.8438 68.8438 55.2708 68.8438 56.9375ZM68.9688 30.5C68.9688 34.4375 69.8229 36.7292 71.5312 37.375C73.1979 36.7292 74.0312 34.25 74.0312 29.9375C74.0312 26.5208 73.1562 24.4688 71.4062 23.7812C69.7812 24.4688 68.9688 26.7083 68.9688 30.5ZM101.188 25.9062C102.167 26.0729 102.938 26.4583 103.5 27.0625C104.083 27.6458 104.375 28.3958 104.375 29.3125C104.375 30.4167 104.01 31.3333 103.281 32.0625C102.552 32.7708 101.594 33.125 100.406 33.125C99.1771 33.125 98.0625 32.6875 97.0625 31.8125C96.0625 30.9375 95.5625 29.6979 95.5625 28.0938C95.5625 25.3646 96.8542 23.1562 99.4375 21.4688C102.042 19.7812 105.438 18.9375 109.625 18.9375C113.604 18.9375 116.396 19.7396 118 21.3438C119.625 22.9271 120.438 25.6042 120.438 29.375V40.3125L122.438 40.25C124.146 40.375 125.333 41.1875 126 42.6875L125 44.4062C124.354 45.3854 123.812 46.1458 123.375 46.6875C122.958 47.2083 122.354 47.8021 121.562 48.4688C120.771 49.1354 119.844 49.6146 118.781 49.9062C117.719 50.1979 116.479 50.3438 115.062 50.3438C113.312 50.3438 111.99 49.6875 111.094 48.375C108.844 50 105.906 50.8125 102.281 50.8125C100.698 50.8125 99.3438 50.5625 98.2188 50.0625C97.1146 49.5833 96.3021 48.9375 95.7812 48.125C95.2812 47.3125 94.9271 46.5521 94.7188 45.8438C94.5104 45.1354 94.4062 44.4167 94.4062 43.6875C94.4062 40.625 95.4375 38.3333 97.5 36.8125C99.5625 35.2917 103.729 33.7292 110 32.125V28.7188C110 27.0521 109.646 25.8333 108.938 25.0625C108.25 24.2917 107.354 23.9062 106.25 23.9062C103.896 23.9062 102.208 24.5729 101.188 25.9062ZM111.281 35.0625V41.5938C109.281 44.2396 107.24 45.5625 105.156 45.5625C103.948 45.5625 102.958 45.2708 102.188 44.6875C101.438 44.1042 101.062 43.2812 101.062 42.2188C101.062 40.5104 101.76 39.1042 103.156 38C104.573 36.8958 107.281 35.9167 111.281 35.0625ZM110 41.1875V37.375C106.979 38.4792 105.469 40.0938 105.469 42.2188C105.469 43.1146 105.792 43.7396 106.438 44.0938C107.542 43.6979 108.729 42.7292 110 41.1875ZM100.406 30.375C99.6771 30.375 99.1667 29.8438 98.875 28.7812C98.4583 27.0729 98.9688 25.5833 100.406 24.3125C101.823 23.0625 103.958 22.4375 106.812 22.4375C108.167 22.4375 109.25 22.9688 110.062 24.0312C110.875 25.0729 111.281 26.6354 111.281 28.7188V33.0625C105.135 34.6458 101 36.1458 98.875 37.5625C96.75 38.9583 95.6875 41 95.6875 43.6875C95.6875 45.1042 96.1667 46.4375 97.125 47.6875C98.0833 48.9167 99.8021 49.5312 102.281 49.5312C103.26 49.5312 104.177 49.375 105.031 49.0625C105.906 48.75 106.802 48.25 107.719 47.5625C108.656 46.8542 109.229 46.4062 109.438 46.2188C109.646 46.0312 109.99 45.7083 110.469 45.25C110.969 44.7708 111.24 44.5104 111.281 44.4688C111.552 47.5312 112.812 49.0625 115.062 49.0625C115.625 49.0625 116.271 48.9167 117 48.625C117.729 48.3333 118.458 47.7604 119.188 46.9062C119.938 46.0521 120.406 45.4896 120.594 45.2188C120.802 44.9271 121.104 44.4792 121.5 43.875C121.896 43.25 122.188 42.8229 122.375 42.5938C122.104 42.0104 121.583 41.6771 120.812 41.5938C119.667 43.3438 118.5 44.1979 117.312 44.1562C116.458 44.1146 116.031 43.5104 116.031 42.3438V29.375C116.031 26.0417 115.375 23.6875 114.062 22.3125C112.771 20.9167 110.542 20.2188 107.375 20.2188C104.521 20.2188 102.042 20.9583 99.9375 22.4375C97.8542 23.8958 96.8125 25.7812 96.8125 28.0938C96.8125 29.2812 97.1771 30.2083 97.9062 30.875C98.6354 31.5208 99.4688 31.8438 100.406 31.8438C100.698 31.4271 100.698 30.9375 100.406 30.375ZM138.25 4.71875C142.958 4.71875 145.312 6.42708 145.312 9.84375C145.312 13.2604 142.958 14.9688 138.25 14.9688C137.542 14.9688 136.875 14.8333 136.25 14.5625C135.646 14.2917 135.115 13.9271 134.656 13.4688C134.198 12.9896 133.833 12.4375 133.562 11.8125C133.292 11.1875 133.156 10.5312 133.156 9.84375C133.156 9.15625 133.292 8.5 133.562 7.875C133.833 7.25 134.198 6.70833 134.656 6.25C135.115 5.77083 135.646 5.39583 136.25 5.125C136.875 4.85417 137.542 4.71875 138.25 4.71875ZM135.375 7.15625C134.75 7.88542 134.438 8.78125 134.438 9.84375C134.438 10.3854 134.521 10.8958 134.688 11.375C134.875 11.8333 135.125 12.2396 135.438 12.5938C135.75 12.9271 136.104 13.1979 136.5 13.4062C136.917 13.5938 137.354 13.6875 137.812 13.6875C138.25 13.6875 138.677 13.5938 139.094 13.4062C139.51 13.1979 139.875 12.9271 140.188 12.5938C140.5 12.2396 140.75 11.8333 140.938 11.375C141.125 10.8958 141.219 10.3854 141.219 9.84375C141.219 9.30208 141.125 8.80208 140.938 8.34375C140.75 7.86458 140.5 7.45833 140.188 7.125C139.875 6.77083 139.51 6.5 139.094 6.3125C138.677 6.10417 138.25 6 137.812 6C137.375 6 136.948 6.09375 136.531 6.28125C136.115 6.46875 135.729 6.76042 135.375 7.15625ZM148 47.1875C143.042 46.7292 140.542 45.7292 140.5 44.1875C140.292 37.9375 140.208 30.2604 140.25 21.1562C140.083 20.8229 139.719 20.5521 139.156 20.3438C136.26 21.6979 133.25 22.5521 130.125 22.9062C130 23.4062 130 23.8958 130.125 24.375C132.479 24.5 134.271 24.9271 135.5 25.6562C135.688 33.4271 135.667 39.6042 135.438 44.1875C135.396 45.7292 133.625 46.7292 130.125 47.1875C129.917 47.7083 129.917 48.2188 130.125 48.7188C136.104 48.5938 142.062 48.5938 148 48.7188C148.208 48.2188 148.208 47.7083 148 47.1875ZM149.156 46.0312C149.49 47.3229 149.49 48.5833 149.156 49.8125C142.448 49.6042 135.729 49.6042 129 49.8125C128.646 48.5833 128.646 47.3229 129 46.0312C132.396 45.6979 134.115 45.0625 134.156 44.125C134.427 38.2917 134.448 32.3854 134.219 26.4062C132.823 25.9896 131.083 25.7188 129 25.5938C128.521 24.3438 128.521 23.0208 129 21.625C132.146 21.4583 135.688 20.5208 139.625 18.8125C141.875 18.9792 143.552 19.6562 144.656 20.8438C144.573 31.0938 144.656 38.8542 144.906 44.125C144.969 45.0625 146.385 45.6979 149.156 46.0312ZM174.469 47.1875C174.219 47.6667 174.219 48.1771 174.469 48.7188C179.885 48.5938 185.312 48.5938 190.75 48.7188C191.042 48.2188 191.042 47.7083 190.75 47.1875C185.667 46.9375 183.104 45.9375 183.062 44.1875L182.75 28.4688C182.646 25.6146 182.177 23.5312 181.344 22.2188C180.531 20.8854 179.094 20.2188 177.031 20.2188C173.573 20.2188 169.458 22.6042 164.688 27.375V21.1562C164.521 20.8229 164.156 20.5521 163.594 20.3438C160.698 21.6979 157.688 22.5521 154.562 22.9062C154.438 23.4062 154.438 23.8958 154.562 24.375C156.958 24.5 158.729 24.9271 159.875 25.6562C160.104 31.8854 160.104 38.0625 159.875 44.1875C159.833 45.7292 158.042 46.7292 154.5 47.1875C154.25 47.6667 154.25 48.1771 154.5 48.7188C159.917 48.5104 165.365 48.5104 170.844 48.7188C171.094 48.1771 171.094 47.6667 170.844 47.1875C166.948 46.7708 164.979 45.7708 164.938 44.1875C164.771 39.8542 164.688 34.9167 164.688 29.375C168.875 25.6875 172.156 23.8438 174.531 23.8438C176.802 23.8438 177.938 25.7292 177.938 29.5L177.875 44.1875C177.875 45.2083 177.562 45.9271 176.938 46.3438C176.312 46.7396 175.49 47.0208 174.469 47.1875ZM173.469 49.8125C172.948 48.5833 172.948 47.3229 173.469 46.0312C174.135 46.0312 174.823 45.8542 175.531 45.5C176.24 45.125 176.594 44.6875 176.594 44.1875L176.656 29.5C176.656 27.2292 176.208 25.8438 175.312 25.3438C173.771 25.7188 171.698 26.8438 169.094 28.7188C169.094 34.4479 169.177 39.5833 169.344 44.125C169.448 45.2292 170.281 45.8646 171.844 46.0312C172.365 47.3229 172.365 48.5833 171.844 49.8125C165.74 49.6042 159.604 49.6042 153.438 49.8125C152.917 48.5833 152.917 47.3229 153.438 46.0312C156.833 45.5729 158.552 44.9375 158.594 44.125C158.823 38.25 158.823 32.3438 158.594 26.4062C157.198 25.9896 155.479 25.7188 153.438 25.5938C152.958 24.3438 152.958 23.0208 153.438 21.625C156.583 21.4583 160.125 20.5208 164.062 18.8125C166.312 18.9792 167.99 19.6562 169.094 20.8438V21.875C172.052 19.9167 175.448 18.9375 179.281 18.9375C182.094 18.9375 184.094 19.7083 185.281 21.25C186.49 22.7708 187.115 25.1771 187.156 28.4688C187.24 36.7396 187.344 41.9792 187.469 44.1875C187.51 45.0417 188.979 45.6562 191.875 46.0312C192.354 47.4062 192.312 48.6667 191.75 49.8125C185.646 49.6875 179.552 49.6875 173.469 49.8125Z" fill="#0055FF"/>
</g>
<defs>
<filter id="filter0_d_7_7" x="0" y="0" width="194.594" height="70.5" filterUnits="userSpaceOnUse" color-interpolation-filters="sRGB">
<feFlood flood-opacity="0" result="BackgroundImageFix"/>
<feColorMatrix in="SourceAlpha" type="matrix" values="0 0 0 0 0 0 0 0 0 0 0 0 0 0 0 0 0 0 127 0" result="hardAlpha"/>
<feOffset dx="2" dy="3"/>
<feComposite in2="hardAlpha" operator="out"/>
<feColorMatrix type="matrix" values="0 0 0 0 1 0 0 0 0 0 0 0 0 0 0 0 0 0 1 0"/>
<feBlend mode="normal" in2="BackgroundImageFix" result="effect1_dropShadow_7_7"/>
<feBlend mode="normal" in="SourceGraphic" in2="effect1_dropShadow_7_7" result="shape"/>
</filter>
</defs>
</svg>
