<svg width="306" height="102" viewBox="0 0 306 102" fill="none" xmlns="http://www.w3.org/2000/svg">
<g filter="url(#filter0_d_7_11)">
<path d="M25.344 79.7759C24.448 79.7759 23.584 79.4879 22.752 78.9119C21.92 78.3359 21.056 77.6639 20.16 76.8959C18.368 75.2959 16.32 73.0879 14.016 70.2719C11.712 67.4559 9.50401 64.1599 7.39201 60.3839C5.28001 56.5439 3.52001 52.3839 2.11201 47.9039C0.704012 43.3599 1.18017e-05 38.5599 1.18017e-05 33.5039C1.18017e-05 28.7039 0.992012 24.2879 2.97601 20.2559C4.96001 16.2239 7.71201 12.7039 11.232 9.69588C14.752 6.68788 18.848 4.38388 23.52 2.78388C28.192 1.11988 33.248 0.287884 38.688 0.287884C44.192 0.287884 49.28 1.11988 53.952 2.78388C58.688 4.38388 62.816 6.68788 66.336 9.69588C69.856 12.7039 72.608 16.2239 74.592 20.2559C76.576 24.2879 77.568 28.7039 77.568 33.5039C77.568 38.5599 76.864 43.3599 75.456 47.9039C74.048 52.3839 72.288 56.5439 70.176 60.3839C68.064 64.1599 65.856 67.4559 63.552 70.2719C61.248 73.0879 59.2 75.2959 57.408 76.8959C56.576 77.6639 55.712 78.3359 54.816 78.9119C53.984 79.4879 53.12 79.7759 52.224 79.7759C51.008 79.7759 49.888 79.2639 48.864 78.2399C47.84 77.2159 47.328 75.9039 47.328 74.3039C47.328 73.0239 47.648 71.4239 48.288 69.5039C48.928 67.5839 49.248 65.9199 49.248 64.5119C49.248 62.9759 48.48 61.9519 46.944 61.4399C45.472 60.9279 42.72 60.6719 38.688 60.6719C35.744 60.6719 33.536 60.7999 32.064 61.0559C30.592 61.3119 29.6 61.7279 29.088 62.3039C28.576 62.8159 28.32 63.5519 28.32 64.5119C28.32 65.9199 28.64 67.5839 29.28 69.5039C29.92 71.4239 30.24 73.0239 30.24 74.3039C30.24 75.9039 29.728 77.2159 28.704 78.2399C27.68 79.2639 26.56 79.7759 25.344 79.7759ZM38.88 50.6879C42.848 50.7519 45.6 50.6239 47.136 50.3039C48.672 49.9839 49.44 48.8319 49.44 46.8479C49.44 46.2079 49.344 45.2479 49.152 43.9679C49.024 42.6239 48.64 41.2479 48 39.8399C47.36 38.3679 46.304 37.1199 44.832 36.0959C43.424 35.0719 41.408 34.5599 38.784 34.5599C36.224 34.5599 34.208 35.0719 32.736 36.0959C31.328 37.1199 30.304 38.3679 29.664 39.8399C29.088 41.2479 28.704 42.6239 28.512 43.9679C28.384 45.2479 28.32 46.2079 28.32 46.8479C28.32 48.8319 29.088 49.9839 30.624 50.3039C32.16 50.6239 34.912 50.7519 38.88 50.6879ZM112.459 97.6319C110.411 97.6319 108.331 97.4399 106.219 97.0559C104.171 96.7359 102.411 96.2559 100.939 95.6159C99.2108 94.8479 97.9628 93.8239 97.1948 92.5439C96.4268 91.3279 96.0428 89.9839 96.0428 88.5119C96.0428 87.2959 96.4588 86.3039 97.2908 85.5359C98.1868 84.7679 99.2428 84.3839 100.459 84.3839C100.971 84.3839 101.483 84.4479 101.995 84.5759C102.507 84.7039 102.987 84.9279 103.435 85.2479C105.163 86.3999 106.571 87.2319 107.659 87.7439C108.811 88.3199 110.187 88.6079 111.787 88.6079C116.331 88.6079 119.659 87.5199 121.771 85.3439C123.947 83.1679 125.035 80.4159 125.035 77.0879C125.035 76.1919 124.939 75.1359 124.747 73.9199C124.555 72.7039 123.915 72.0959 122.827 72.0959C122.379 72.0959 121.995 72.2559 121.675 72.5759C121.419 72.8319 121.131 73.1519 120.811 73.5359C119.467 75.5199 117.739 77.0559 115.627 78.1439C113.515 79.2319 111.147 79.7759 108.523 79.7759C105.131 79.7759 102.027 78.8159 99.2108 76.8959C96.4588 74.9119 93.9628 72.5439 91.7228 69.7919C88.7788 66.1439 86.4428 61.9519 84.7148 57.2159C83.0508 52.4799 82.2188 47.9679 82.2188 43.6799C82.2188 36.1279 84.0428 30.2079 87.6908 25.9199C91.3388 21.6319 96.1708 19.4879 102.187 19.4879C108.843 19.4879 113.867 21.5679 117.259 25.7279C117.579 26.0479 117.899 26.3679 118.219 26.6879C118.539 27.0079 118.923 27.1679 119.371 27.1679C119.883 27.1679 120.267 27.0079 120.523 26.6879C120.843 26.3039 121.163 25.8559 121.483 25.3439C122.827 23.2959 124.395 21.8239 126.187 20.9279C128.043 19.9679 129.963 19.4879 131.947 19.4879C135.595 19.4879 138.411 20.5759 140.395 22.7519C142.443 24.9279 143.851 28.0319 144.619 32.0639C145.387 36.0959 145.771 40.8639 145.771 46.3679C145.771 51.2319 145.483 56.1279 144.907 61.0559C144.331 65.9199 143.307 70.5599 141.835 74.9759C140.363 79.3279 138.379 83.1999 135.883 86.5919C133.387 90.0479 130.219 92.7359 126.379 94.6559C122.539 96.6399 117.899 97.6319 112.459 97.6319ZM115.531 66.9119C117.387 66.9119 118.891 66.3679 120.043 65.2799C121.259 64.1279 121.867 62.4959 121.867 60.3839C121.867 58.7839 121.611 57.2159 121.099 55.6799C120.651 54.0799 119.819 52.7359 118.603 51.6479C117.451 50.5599 115.819 50.0159 113.707 50.0159C111.083 50.0159 109.131 50.6559 107.851 51.9359C106.635 53.1519 106.027 54.8159 106.027 56.9279C106.027 57.9519 106.347 59.2639 106.987 60.8639C107.691 62.3999 108.747 63.8079 110.155 65.0879C111.563 66.3039 113.355 66.9119 115.531 66.9119ZM195.669 79.7759C193.109 79.7759 191.093 77.8239 189.621 73.9199C189.173 72.8319 188.565 72.2879 187.797 72.2879C187.157 72.2879 186.645 72.4799 186.261 72.8639C185.941 73.1839 185.621 73.5039 185.301 73.8239C183.701 75.7439 182.229 77.2159 180.885 78.2399C179.605 79.2639 177.845 79.7759 175.605 79.7759C172.469 79.7759 169.429 78.8799 166.485 77.0879C163.605 75.2319 160.981 72.6719 158.613 69.4079C156.309 66.1439 154.485 62.3999 153.141 58.1759C151.797 53.9519 151.125 49.4399 151.125 44.6399C151.189 40.1599 152.053 36.0319 153.717 32.2559C155.445 28.4159 157.877 25.3439 161.013 23.0399C164.213 20.6719 168.021 19.4879 172.437 19.4879C175.637 19.4879 178.357 20.1919 180.597 21.5999C181.621 22.2399 182.485 22.9119 183.189 23.6159C183.893 24.2559 184.469 24.9279 184.917 25.6319C185.301 26.2079 185.621 26.6559 185.877 26.9759C186.197 27.2959 186.613 27.4559 187.125 27.4559C187.637 27.4559 188.021 27.2959 188.277 26.9759C188.533 26.5919 188.789 26.1759 189.045 25.7279C190.133 23.8719 191.381 22.3679 192.789 21.2159C194.261 20.0639 195.957 19.4879 197.877 19.4879C201.205 19.4879 203.573 20.9279 204.981 23.8079C206.389 26.6239 207.093 30.6879 207.093 35.9999C207.093 38.7519 206.901 41.7919 206.517 45.1199C206.197 48.3839 205.781 51.6799 205.269 55.0079C204.757 58.2719 204.181 61.3439 203.541 64.2239C202.965 67.0399 202.389 69.3759 201.813 71.2319C201.045 73.7279 200.245 75.7759 199.413 77.3759C198.581 78.9759 197.333 79.7759 195.669 79.7759ZM180.501 67.1999C182.613 67.1999 184.245 66.4959 185.397 65.0879C186.613 63.6799 186.997 61.3759 186.549 58.1759C185.781 52.7999 183.093 50.1119 178.485 50.1119C175.925 50.1119 174.005 50.7839 172.725 52.1279C171.445 53.4079 170.805 54.9119 170.805 56.6399C170.805 57.9199 171.125 59.3919 171.765 61.0559C172.469 62.7199 173.525 64.1599 174.933 65.3759C176.405 66.5919 178.261 67.1999 180.501 67.1999ZM224.246 20.8319C220.982 20.8319 218.358 19.8719 216.374 17.9519C214.39 16.0319 213.398 13.4719 213.398 10.2719C213.398 7.07188 214.39 4.57588 216.374 2.78388C218.358 0.927881 220.982 -0.000118256 224.246 -0.000118256C227.51 -0.000118256 230.134 0.927881 232.118 2.78388C234.102 4.57588 235.094 7.07188 235.094 10.2719C235.094 13.4719 234.102 16.0319 232.118 17.9519C230.134 19.8719 227.51 20.8319 224.246 20.8319ZM224.246 79.7759C222.326 79.7759 220.854 79.1999 219.83 78.0479C218.87 76.8319 218.038 75.2319 217.334 73.2479C216.886 71.9039 216.342 70.0799 215.702 67.7759C215.126 65.4079 214.518 62.7839 213.878 59.9039C213.302 57.0239 212.822 54.1119 212.438 51.1679C212.054 48.2239 211.862 45.5039 211.862 43.0079C211.862 37.3119 212.95 33.1839 215.126 30.6239C217.366 27.9999 220.406 26.6879 224.246 26.6879C228.086 26.6879 231.094 27.9999 233.27 30.6239C235.51 33.1839 236.63 37.3119 236.63 43.0079C236.63 45.5039 236.438 48.2239 236.054 51.1679C235.67 54.1119 235.158 57.0239 234.518 59.9039C233.942 62.7839 233.334 65.4079 232.694 67.7759C232.118 70.0799 231.606 71.9039 231.158 73.2479C230.454 75.3599 229.59 76.9919 228.566 78.1439C227.542 79.2319 226.102 79.7759 224.246 79.7759ZM282.302 79.7759C281.086 79.7759 280.126 79.1359 279.422 77.8559C278.782 76.5759 278.462 74.1759 278.462 70.6559C278.462 68.8639 278.43 66.8159 278.366 64.5119C278.302 62.2079 278.014 59.9679 277.502 57.7919C277.054 55.6159 276.254 53.8239 275.102 52.4159C274.014 51.0079 272.414 50.3039 270.302 50.3039C267.806 50.3039 265.886 51.0719 264.542 52.6079C263.262 54.1439 262.334 56.0959 261.758 58.4639C261.182 60.8319 260.734 63.3279 260.414 65.9519C260.094 68.5759 259.614 70.9759 258.974 73.1519C258.462 75.1359 257.726 76.7359 256.766 77.9519C255.87 79.1679 254.75 79.7759 253.406 79.7759C251.998 79.7759 250.782 79.1679 249.758 77.9519C248.798 76.6719 247.966 74.8799 247.262 72.5759C246.43 69.6319 245.566 66.1759 244.67 62.2079C243.838 58.2399 243.134 53.9839 242.558 49.4399C241.982 44.8959 241.694 40.2879 241.694 35.6159C241.694 30.4959 242.91 26.5279 245.342 23.7119C247.838 20.8959 250.75 19.4879 254.078 19.4879C256.062 19.4879 257.95 19.9999 259.742 21.0239C261.598 21.9839 263.198 23.4879 264.542 25.5359C264.862 26.0479 265.15 26.4959 265.406 26.8799C265.726 27.1999 266.142 27.3599 266.654 27.3599C267.166 27.3599 267.614 27.1359 267.998 26.6879C268.382 26.1759 268.894 25.5679 269.534 24.8639C271.006 23.1999 272.606 21.8879 274.334 20.9279C276.062 19.9679 278.206 19.4879 280.766 19.4879C283.582 19.4879 286.142 20.3519 288.446 22.0799C290.75 23.8079 292.606 26.3999 294.014 29.8559C295.422 33.3119 296.126 37.6639 296.126 42.9119C296.126 48.0959 295.71 52.9279 294.878 57.4079C294.046 61.8879 292.926 65.8239 291.518 69.2159C290.174 72.5439 288.702 75.1359 287.102 76.9919C285.502 78.8479 283.902 79.7759 282.302 79.7759Z" fill="white"/>
</g>
<defs>
<filter id="filter0_d_7_11" x="0" y="0" width="305.126" height="101.632" filterUnits="userSpaceOnUse" color-interpolation-filters="sRGB">
<feFlood flood-opacity="0" result="BackgroundImageFix"/>
<feColorMatrix in="SourceAlpha" type="matrix" values="0 0 0 0 0 0 0 0 0 0 0 0 0 0 0 0 0 0 127 0" result="hardAlpha"/>
<feOffset dx="9" dy="4"/>
<feComposite in2="hardAlpha" operator="out"/>
<feColorMatrix type="matrix" values="0 0 0 0 1 0 0 0 0 0 0 0 0 0 0 0 0 0 0.58 0"/>
<feBlend mode="normal" in2="BackgroundImageFix" result="effect1_dropShadow_7_11"/>
<feBlend mode="normal" in="SourceGraphic" in2="effect1_dropShadow_7_11" result="shape"/>
</filter>
</defs>
</svg>
