<svg width="182" height="89" viewBox="0 0 182 89" fill="none" xmlns="http://www.w3.org/2000/svg">
<path d="M6.71998 57.7921C4.73598 57.7921 3.10398 57.2161 1.82398 56.0641C0.607981 54.9121 0.127981 53.1841 0.383981 50.8801C0.447981 50.0481 0.639981 49.1841 0.959981 48.2881C1.34398 47.3281 1.75998 46.4001 2.20798 45.5041C2.59198 44.6081 2.97598 44.1601 3.35998 44.1601C3.67998 44.1601 3.71198 44.4161 3.45598 44.9281C2.62398 46.6561 2.20798 48.1921 2.20798 49.5361C2.20798 50.9441 2.68798 52.0001 3.64798 52.7041C4.67198 53.4081 5.98398 53.7601 7.58398 53.7601C10.72 53.7601 14.176 52.7681 17.952 50.7841C21.728 48.7361 25.632 46.1441 29.664 43.0081C33.696 39.8081 37.568 36.4801 41.28 33.0241C38.784 32.8961 36.448 32.7681 34.272 32.6401C32.096 32.5121 30.176 32.4481 28.512 32.4481C27.104 32.4481 25.408 32.5761 23.424 32.8321C21.44 33.0881 19.904 33.7601 18.816 34.8481C18.368 35.2961 17.952 35.9681 17.568 36.8641C17.248 37.6961 17.088 38.5601 17.088 39.4561C17.088 39.7121 17.088 39.9681 17.088 40.2241C17.152 40.4161 17.216 40.6401 17.28 40.8961C17.024 40.7681 16.544 40.6721 15.84 40.6081C15.2 40.4801 14.784 40.0641 14.592 39.3601C14.528 39.1681 14.496 38.8481 14.496 38.4001C14.496 37.3761 14.88 36.5441 15.648 35.9041C16.416 35.2001 17.344 34.5921 18.432 34.0801C19.52 33.5681 20.512 33.1201 21.408 32.7361C23.52 31.8401 25.696 31.1041 27.936 30.5281C30.176 29.9521 32.448 29.6641 34.752 29.6641C37.376 29.6641 40.64 29.7601 44.544 29.9521C47.552 27.0081 50.336 24.2241 52.896 21.6001C55.456 18.9761 57.536 16.8001 59.136 15.0721C61.376 12.7041 63.744 10.6881 66.24 9.02409C68.8 7.29609 71.392 6.08009 74.016 5.37609H68.736C66.496 5.37609 64.064 5.47209 61.44 5.66409C58.816 5.85609 56.352 6.27209 54.048 6.91209C51.744 7.55209 49.824 8.51209 48.288 9.79209C47.328 10.6241 46.592 11.5841 46.08 12.6721C45.632 13.6961 45.408 14.6561 45.408 15.5521C45.408 16.7681 45.76 17.6001 46.464 18.0481C46.528 18.0481 46.56 18.0801 46.56 18.1441C46.56 18.3361 46.336 18.5601 45.888 18.8161C45.44 19.0081 45.12 19.0401 44.928 18.9121C44.288 18.4641 43.712 17.5681 43.2 16.2241C42.752 14.8161 42.592 13.6961 42.72 12.8641C43.04 10.8801 43.904 9.28009 45.312 8.06409C46.784 6.78409 48.576 5.79209 50.688 5.08809C52.864 4.38409 55.136 3.90409 57.504 3.64809C59.936 3.39209 62.24 3.23209 64.416 3.16809C66.656 3.10409 68.544 3.07209 70.08 3.07209H80.544C80.672 3.07209 80.704 3.10409 80.64 3.16809C82.24 2.46409 83.904 1.76009 85.632 1.05609C87.424 0.352087 88.96 8.7738e-05 90.24 8.7738e-05C90.56 8.7738e-05 90.88 0.0960884 91.2 0.28809C91.584 0.480087 91.776 0.672087 91.776 0.864088C91.776 1.18409 91.136 1.34409 89.856 1.34409C89.216 1.34409 88.544 1.47209 87.84 1.72809C87.2 1.92009 86.336 2.59208 85.248 3.74409C84.352 4.64009 83.232 6.08009 81.888 8.06409C80.544 10.0481 79.072 12.3841 77.472 15.0721C75.872 17.6961 74.272 20.5121 72.672 23.5201C71.072 26.4641 69.536 29.3761 68.064 32.2561C66.592 35.1361 65.312 37.7921 64.224 40.2241C64.096 40.6081 63.744 41.5041 63.168 42.9121C62.592 44.2561 62.048 45.7601 61.536 47.4241C61.024 49.0241 60.768 50.4641 60.768 51.7441C60.768 53.4721 61.376 54.3361 62.592 54.3361C63.168 54.3361 63.744 54.2081 64.32 53.9521C65.152 53.6321 66.016 53.1521 66.912 52.5121C67.808 51.8721 68.672 51.1361 69.504 50.3041C71.168 48.7041 72.576 47.1681 73.728 45.6961C74.88 44.1601 75.584 43.2321 75.84 42.9121C76.032 42.5921 76.256 42.4321 76.512 42.4321C76.768 42.4321 76.896 42.5921 76.896 42.9121C76.896 43.1041 76.8 43.3601 76.608 43.6801C76.16 44.3201 75.328 45.4401 74.112 47.0401C72.896 48.5761 71.456 50.1441 69.792 51.7441C68.192 53.3441 66.464 54.5601 64.608 55.3921C64.032 55.6481 63.424 55.8401 62.784 55.9681C62.144 56.1601 61.504 56.2561 60.864 56.2561C59.584 56.2561 58.4 55.8081 57.312 54.9121C56.288 54.0161 55.776 52.5441 55.776 50.4961C55.776 48.6401 56.128 46.6561 56.832 44.5441C57.6 42.3681 58.304 40.6081 58.944 39.2641C60.224 36.5121 61.728 33.4401 63.456 30.0481C65.248 26.6561 67.072 23.2641 68.928 19.8721C70.848 16.4801 72.608 13.4081 74.208 10.6561C75.808 7.90409 77.12 5.85609 78.144 4.51209C77.12 4.51209 75.744 4.92809 74.016 5.76009C72.288 6.52809 70.432 7.58409 68.448 8.92809C66.528 10.2081 64.736 11.7121 63.072 13.4401C61.088 15.4881 58.784 17.9841 56.16 20.9281C53.6 23.8721 50.816 26.9441 47.808 30.1441C49.28 30.2081 50.752 30.2721 52.224 30.3361C53.696 30.3361 55.168 30.3361 56.64 30.3361C57.664 30.3361 58.784 30.2401 60 30.0481C61.28 29.7921 62.464 29.4081 63.552 28.8961C63.552 28.8961 63.36 29.2481 62.976 29.9521C62.656 30.5921 62.08 31.2641 61.248 31.9681C60.48 32.6081 59.424 32.9921 58.08 33.1201C56.864 33.1841 55.648 33.2481 54.432 33.3121C53.216 33.3121 52 33.3121 50.784 33.3121C49.76 33.3121 48.736 33.3121 47.712 33.3121C46.752 33.3121 45.792 33.2801 44.832 33.2161C41.888 36.2881 38.816 39.2961 35.616 42.2401C32.416 45.1201 29.184 47.7441 25.92 50.1121C22.656 52.4801 19.392 54.3361 16.128 55.6801C12.928 57.0881 9.79198 57.7921 6.71998 57.7921ZM58.1355 88.9921C55.7035 88.9921 53.3675 88.4161 51.1275 87.2641C48.8235 86.1761 47.1275 84.4801 46.0395 82.1761C45.5915 81.3441 45.3035 80.4481 45.1755 79.4881C45.0475 78.5921 44.9835 77.6961 44.9835 76.8001V75.8401C44.9835 75.3281 45.0475 74.8481 45.1755 74.4001C45.3035 73.9521 45.6555 73.7281 46.2315 73.7281C46.3595 73.7281 46.4235 73.7921 46.4235 73.9201C46.4235 74.3041 46.3915 74.6881 46.3275 75.0721C46.2635 75.4561 46.2315 75.8721 46.2315 76.3201C46.2315 79.2641 47.1915 81.5041 49.1115 83.0401C50.9675 84.5761 53.3035 85.3441 56.1195 85.3441C57.2715 85.3441 58.4555 85.2161 59.6715 84.9601C60.8875 84.7041 62.0075 84.3521 63.0315 83.9041C67.1275 82.1761 70.6795 79.6801 73.6875 76.4161C76.7595 73.1521 79.4155 69.4721 81.6555 65.3761C83.9595 61.2801 85.9755 57.0881 87.7035 52.8001C89.4955 48.4481 91.1595 44.3521 92.6955 40.5121C91.3515 42.6881 89.8795 44.6401 88.2795 46.3681C86.6795 48.0321 84.8875 49.6961 82.9035 51.3601C81.6875 52.3841 80.3435 53.3441 78.8715 54.2401C77.4635 55.1361 75.9275 55.5841 74.2635 55.5841C73.6235 55.5841 73.1755 55.3921 72.9195 55.0081C72.6635 54.5601 72.5355 54.0481 72.5355 53.4721V52.8001C72.8555 50.3041 73.6555 47.7121 74.9355 45.0241C76.2795 42.3361 77.8795 39.8081 79.7355 37.4401C81.5915 35.0721 83.4795 33.1521 85.3995 31.6801C87.5755 30.0161 89.9755 29.1841 92.5995 29.1841H103.639C103.959 29.1841 104.119 29.3121 104.119 29.5681C104.119 30.0801 103.831 30.3361 103.255 30.3361C102.551 30.3361 101.879 30.6241 101.239 31.2001C100.599 31.7761 100.119 32.3201 99.7995 32.8321C99.1595 33.8561 98.3275 35.4241 97.3035 37.5361C96.2795 39.6481 95.1595 42.0801 93.9435 44.8321C92.7275 47.5201 91.5115 50.2721 90.2955 53.0881C89.0795 55.8401 87.9595 58.4321 86.9355 60.8641C85.3995 64.5121 83.6395 68.0641 81.6555 71.5201C79.7355 75.0401 77.4315 78.1761 74.7435 80.9281C72.1195 83.7441 68.9835 85.9521 65.3355 87.5521C63.1595 88.5121 60.7595 88.9921 58.1355 88.9921ZM78.1995 52.3201C78.9675 52.3201 80.0235 51.7761 81.3675 50.6881C82.7115 49.5361 84.1835 48.1281 85.7835 46.4641C87.3835 44.7361 88.8875 42.9441 90.2955 41.0881C91.7035 39.1681 92.8555 37.4401 93.7515 35.9041C94.7115 34.3041 95.1915 33.0881 95.1915 32.2561C95.1915 31.5521 94.9675 31.0721 94.5195 30.8161C94.1355 30.5601 93.6235 30.4321 92.9835 30.4321C91.9595 30.4321 90.8715 30.8161 89.7195 31.5841C88.5675 32.2881 87.6395 32.9921 86.9355 33.6961C86.1675 34.4001 85.2395 35.5201 84.1515 37.0561C83.1275 38.5281 82.0715 40.1601 80.9835 41.9521C79.9595 43.7441 79.0955 45.4721 78.3915 47.1361C77.6875 48.8001 77.3355 50.1441 77.3355 51.1681C77.3355 51.9361 77.6235 52.3201 78.1995 52.3201ZM113.782 55.6801C113.142 55.6801 112.598 55.5521 112.15 55.2961C111.702 55.0401 111.478 54.5601 111.478 53.8561C111.478 52.9601 111.702 51.9361 112.15 50.7841C112.598 49.6321 113.11 48.5121 113.686 47.4241C114.262 46.2721 114.774 45.3441 115.222 44.6401C112.982 47.0081 110.646 49.2481 108.214 51.3601C106.998 52.3841 105.654 53.3441 104.182 54.2401C102.71 55.1361 101.142 55.5841 99.4777 55.5841C98.8377 55.5841 98.3897 55.3921 98.1337 55.0081C97.8777 54.5601 97.7497 54.0481 97.7497 53.4721C97.7497 53.1521 97.7817 52.9281 97.8457 52.8001C98.1657 50.3041 98.9657 47.7121 100.246 45.0241C101.526 42.3361 103.094 39.8081 104.95 37.4401C106.806 35.0721 108.694 33.1521 110.614 31.6801C112.79 30.0161 115.19 29.1841 117.814 29.1841H128.854C129.174 29.1841 129.334 29.3121 129.334 29.5681C129.334 30.0801 129.046 30.3361 128.47 30.3361C127.83 30.3361 127.19 30.7521 126.55 31.5841C125.91 32.3521 125.43 32.9921 125.11 33.5041C124.662 34.2081 123.958 35.3921 122.998 37.0561C122.038 38.7201 121.046 40.5441 120.022 42.5281C119.062 44.4481 118.23 46.2401 117.526 47.9041C116.822 49.5681 116.47 50.7841 116.47 51.5521C116.47 52.4481 116.918 52.8961 117.814 52.8961C118.774 52.8961 119.862 52.4481 121.078 51.5521C122.294 50.6561 123.51 49.5681 124.726 48.2881C126.006 46.9441 127.158 45.6321 128.182 44.3521C129.27 43.0081 130.134 41.9521 130.774 41.1841C131.158 41.5681 131.126 42.1121 130.678 42.8161C130.294 43.4561 129.942 43.9681 129.622 44.3521C128.342 46.0161 126.87 47.7441 125.206 49.5361C123.542 51.2641 121.718 52.7361 119.734 53.9521C117.814 55.1041 115.83 55.6801 113.782 55.6801ZM103.414 52.3201C104.182 52.3201 105.238 51.7761 106.582 50.6881C107.99 49.5361 109.494 48.1281 111.094 46.4641C112.694 44.7361 114.198 42.9441 115.606 41.0881C117.014 39.1681 118.166 37.4401 119.062 35.9041C120.022 34.3041 120.502 33.0881 120.502 32.2561C120.502 31.5521 120.278 31.0721 119.83 30.8161C119.446 30.5601 118.934 30.4321 118.294 30.4321C117.27 30.4321 116.15 30.8161 114.934 31.5841C113.782 32.2881 112.854 32.9921 112.15 33.6961C111.382 34.4001 110.454 35.5201 109.366 37.0561C108.342 38.5281 107.318 40.1601 106.294 41.9521C105.27 43.7441 104.406 45.4721 103.702 47.1361C102.998 48.8001 102.646 50.1441 102.646 51.1681C102.646 51.9361 102.902 52.3201 103.414 52.3201ZM148.912 18.7201C148.016 18.7201 147.376 18.4321 146.992 17.8561C146.736 17.5361 146.608 17.1201 146.608 16.6081C146.608 15.5841 147.088 14.7521 148.048 14.1121C148.752 13.7281 149.392 13.5361 149.968 13.5361C150.928 13.5361 151.6 13.8241 151.984 14.4001C152.24 14.7201 152.368 15.1361 152.368 15.6481C152.368 16.6721 151.856 17.5041 150.832 18.1441C150.256 18.5281 149.616 18.7201 148.912 18.7201ZM132.208 55.6801C131.568 55.6801 131.024 55.5521 130.576 55.2961C130.192 55.0401 130 54.5601 130 53.8561C130 52.9601 130.224 51.9041 130.672 50.6881C131.184 49.4721 131.728 48.2561 132.304 47.0401C132.944 45.8241 133.424 44.8321 133.744 44.0641C134.192 43.1681 134.736 42.0161 135.376 40.6081C136.08 39.1361 136.72 37.7601 137.296 36.4801C137.936 35.1361 138.384 34.2081 138.64 33.6961C137.744 34.6561 136.656 35.8721 135.376 37.3441C134.16 38.7521 133.008 40.1281 131.92 41.4721C130.832 42.8161 130 43.8721 129.424 44.6401C129.232 44.8961 129.072 45.0241 128.944 45.0241C128.816 45.0241 128.752 44.8641 128.752 44.5441C128.752 44.0321 128.912 43.5521 129.232 43.1041C130.448 41.5681 131.792 39.8401 133.264 37.9201C134.8 36.0001 136.176 34.2401 137.392 32.6401C138.608 30.9761 139.376 29.8881 139.696 29.3761C140.4 29.2481 141.424 29.0561 142.768 28.8001C144.176 28.5441 145.136 28.1921 145.648 27.7441C145.84 27.5521 146.032 27.4561 146.224 27.4561C146.352 27.4561 146.416 27.5841 146.416 27.8401C146.48 28.0321 146.416 28.2561 146.224 28.5121C145.84 28.9601 145.168 30.0481 144.208 31.7761C143.248 33.5041 142.224 35.4241 141.136 37.5361C140.112 39.5841 139.152 41.4401 138.256 43.1041C137.36 44.8321 136.592 46.4961 135.952 48.0961C135.312 49.6961 134.992 50.8481 134.992 51.5521C134.992 52.4481 135.44 52.8961 136.336 52.8961C137.168 52.8961 138.224 52.3841 139.504 51.3601C140.848 50.3361 142.192 49.1201 143.536 47.7121C144.88 46.2401 146.064 44.8961 147.088 43.6801C147.408 43.2961 147.792 42.8481 148.24 42.3361C148.752 41.7601 149.072 41.4081 149.2 41.2801C149.328 41.4081 149.392 41.6321 149.392 41.9521C149.328 42.4001 149.168 42.8481 148.912 43.2961C148.656 43.6801 148.4 44.0321 148.144 44.3521C146.8 46.0161 145.328 47.7441 143.728 49.5361C142.128 51.2641 140.368 52.7361 138.448 53.9521C136.528 55.1041 134.448 55.6801 132.208 55.6801ZM147.989 56.8321C147.733 56.8321 147.733 56.5441 147.989 55.9681C148.309 55.3921 148.597 54.7521 148.853 54.0481C149.173 53.3441 149.493 52.5761 149.813 51.7441C150.453 50.2081 151.157 48.4801 151.925 46.5601C152.693 44.6401 153.429 42.7841 154.133 40.9921C154.837 39.1361 155.445 37.5681 155.957 36.2881C156.533 34.9441 156.917 34.0801 157.109 33.6961C156.213 34.6561 155.125 35.8721 153.845 37.3441C152.629 38.7521 151.477 40.1281 150.389 41.4721C149.301 42.8161 148.469 43.8721 147.893 44.6401C147.701 44.8961 147.541 45.0241 147.413 45.0241C147.285 45.0241 147.221 44.8641 147.221 44.5441C147.221 44.0321 147.381 43.5521 147.701 43.1041C148.917 41.5681 150.261 39.8401 151.733 37.9201C153.269 36.0001 154.645 34.2401 155.861 32.6401C157.077 30.9761 157.845 29.8881 158.165 29.3761C158.869 29.2481 159.893 29.0561 161.237 28.8001C162.645 28.5441 163.605 28.1921 164.117 27.7441C164.309 27.5521 164.501 27.4561 164.693 27.4561C164.821 27.4561 164.885 27.5841 164.885 27.8401C164.949 28.0321 164.885 28.2561 164.693 28.5121C164.309 28.9601 163.637 30.0161 162.677 31.6801C161.781 33.2801 160.789 35.0721 159.701 37.0561C158.677 39.0401 157.717 40.8321 156.821 42.4321C157.589 41.4081 158.421 40.4161 159.317 39.4561C160.213 38.4961 161.077 37.5681 161.909 36.6721C162.677 35.9041 163.733 34.9441 165.077 33.7921C166.421 32.6401 167.829 31.5841 169.301 30.6241C170.773 29.6641 172.053 29.1201 173.141 28.9921C173.397 28.9281 173.621 28.8961 173.813 28.8961C174.069 28.8961 174.261 28.8961 174.389 28.8961C175.797 28.8961 176.501 29.4081 176.501 30.4321C176.501 31.2001 176.085 32.2241 175.253 33.5041C174.805 34.2081 174.101 35.3921 173.141 37.0561C172.245 38.6561 171.317 40.4161 170.357 42.3361C169.461 44.1921 168.661 45.9521 167.957 47.6161C167.317 49.2161 166.997 50.4001 166.997 51.1681C166.997 52.0641 167.445 52.5121 168.341 52.5121C169.429 52.5121 170.613 51.9681 171.893 50.8801C173.237 49.7921 174.677 48.4161 176.213 46.7521C177.749 45.0241 179.285 43.2001 180.821 41.2801C180.949 41.4081 181.013 41.6321 181.013 41.9521C181.013 42.4001 180.853 42.8481 180.533 43.2961C180.277 43.6801 180.021 44.0321 179.765 44.3521C179.125 45.1841 178.261 46.2401 177.173 47.5201C176.149 48.7361 175.093 49.9521 174.005 51.1681C172.917 52.3201 171.925 53.2481 171.029 53.9521C170.389 54.4001 169.557 54.8801 168.533 55.3921C167.509 55.9041 166.485 56.1601 165.461 56.1601C164.309 56.1601 163.509 55.8721 163.061 55.2961C162.613 54.6561 162.389 53.8881 162.389 52.9921C162.389 51.9681 162.581 50.8801 162.965 49.7281C163.349 48.5761 163.765 47.4881 164.213 46.4641C164.725 45.3761 165.109 44.5761 165.365 44.0641C166.517 41.8241 167.573 39.7121 168.533 37.7281C169.493 35.7441 170.165 34.3361 170.549 33.5041C170.741 33.1201 170.837 32.8001 170.837 32.5441C170.837 32.0961 170.485 32.0641 169.781 32.4481C169.077 32.8321 168.213 33.4081 167.189 34.1761C166.229 34.9441 165.333 35.7121 164.501 36.4801C163.669 37.1841 163.125 37.6641 162.869 37.9201C160.501 40.4161 158.421 43.2001 156.629 46.2721C154.901 49.2801 153.429 52.3841 152.213 55.5841C151.381 55.6481 150.549 55.8721 149.717 56.2561C148.885 56.6401 148.309 56.8321 147.989 56.8321Z" fill="#00A8A0"/>
</svg>
