<svg width="118" height="36" viewBox="0 0 118 36" fill="none" xmlns="http://www.w3.org/2000/svg">
<g filter="url(#filter0_n_7_5)">
<path d="M2 28.56C2.25333 27.5734 2.57333 26.3467 2.96 24.88C3.34667 23.4 3.76667 21.8267 4.22 20.16C4.67333 18.48 5.12 16.86 5.56 15.3C6.34667 15.62 7.06667 15.8667 7.72 16.04C8.38667 16.2 8.92 16.22 9.32 16.1C9.72 15.98 9.92 15.6534 9.92 15.12C9.92 14.76 9.66 14.4134 9.14 14.08C8.63333 13.7467 7.64667 13.4 6.18 13.04C6.3 12.5734 6.42 12.1334 6.54 11.72C6.66 11.2934 6.77333 10.8934 6.88 10.52C7.8 10.9067 8.67333 11.22 9.5 11.46C10.3267 11.7 11 11.7734 11.52 11.68C12.04 11.5867 12.3 11.24 12.3 10.64C12.3 10.2 11.9667 9.80003 11.3 9.44003C10.6333 9.08003 9.38 8.69336 7.54 8.28003C7.55333 8.22669 7.56 8.18669 7.56 8.16003C7.57333 8.12003 7.58667 8.07336 7.6 8.02003C7.94667 6.86003 8.58 5.96003 9.5 5.32003C10.4333 4.68003 11.7067 4.37336 13.32 4.40003C14.9733 4.40003 16.2667 4.76669 17.2 5.50003C18.1333 6.22003 18.72 7.37336 18.96 8.96003C18.9867 9.16003 19.0133 9.37336 19.04 9.60003C19.08 9.81336 19.1133 10.04 19.14 10.28C19.1667 10.4934 19.1933 10.7134 19.22 10.94C19.26 11.1667 19.2933 11.4 19.32 11.64C19.3467 11.7734 19.3667 11.9067 19.38 12.04C19.4067 12.1734 19.4267 12.3067 19.44 12.44C19.4667 12.5734 19.4867 12.7134 19.5 12.86C19.54 13.1667 19.58 13.48 19.62 13.8C19.66 14.12 19.7067 14.4467 19.76 14.78C19.7867 14.98 19.8133 15.1867 19.84 15.4C19.88 15.6 19.9067 15.8134 19.92 16.04C19.9467 16.2 19.9667 16.3667 19.98 16.54C20.0067 16.7 20.0333 16.8667 20.06 17.04C20.0867 17.2 20.1067 17.3667 20.12 17.54C20.28 18.7 20.4333 19.88 20.58 21.08C20.74 22.28 20.8933 23.46 21.04 24.62C21.1867 25.78 21.32 26.88 21.44 27.92C21.5733 28.96 21.6933 29.9067 21.8 30.76C21.8933 31.4934 21.78 32.1067 21.46 32.6C21.14 33.1067 20.68 33.36 20.08 33.36C19.56 33.36 19.1133 33.16 18.74 32.76C18.38 32.3734 18.16 31.8 18.08 31.04C17.8267 28.64 17.6 26.1467 17.4 23.56C17.2 20.96 16.98 18.3334 16.74 15.68C16.66 14.76 16.4933 14.12 16.24 13.76C15.9867 13.4 15.5667 13.22 14.98 13.22C14.4467 13.22 13.94 13.38 13.46 13.7C12.9933 14.02 12.4667 14.7734 11.88 15.96C10.7467 18.2534 9.62 20.6 8.5 23C7.39333 25.4 6.30667 27.7067 5.24 29.92C4.97333 30.4667 4.68 30.8667 4.36 31.12C4.04 31.36 3.68 31.48 3.28 31.48C2.70667 31.48 2.29333 31.2067 2.04 30.66C1.8 30.1134 1.78667 29.4134 2 28.56ZM6.64 25.28L7.4 22.44C9.10667 22.3734 10.8067 22.3067 12.5 22.24C14.1933 22.1734 15.8 22.12 17.32 22.08C17.96 22.0534 18.4867 22.1534 18.9 22.38C19.3133 22.5934 19.52 22.9467 19.52 23.44C19.52 23.9734 19.3733 24.36 19.08 24.6C18.8 24.84 18.3867 24.9734 17.84 25C15.9733 25.08 14.1267 25.14 12.3 25.18C10.4733 25.22 8.58667 25.2534 6.64 25.28ZM20.12 29.04C19.76 29.04 19.44 28.9267 19.16 28.7C18.8933 28.4734 18.76 28.16 18.76 27.76C18.76 27.36 18.88 27.0534 19.12 26.84C19.3733 26.6267 19.7067 26.52 20.12 26.52C20.2 26.52 20.3133 26.52 20.46 26.52C20.6067 26.52 20.7467 26.52 20.88 26.52V29.04C20.76 29.0534 20.6333 29.06 20.5 29.06C20.3667 29.0467 20.24 29.04 20.12 29.04ZM4.54 23.62C3.34 23.2734 2.41333 22.9667 1.76 22.7C1.10667 22.4334 0.653332 22.1734 0.399999 21.92C0.133332 21.6534 -1.2368e-06 21.3534 -1.2368e-06 21.02C-1.2368e-06 20.38 0.259999 20 0.779999 19.88C1.28667 19.76 1.95333 19.8134 2.78 20.04C3.60667 20.2667 4.47333 20.5867 5.38 21L4.54 23.62ZM5.68 25.96C5.34667 25.8534 5.06 25.74 4.82 25.62C4.59333 25.5 4.42 25.36 4.3 25.2C4.18 25.04 4.12 24.84 4.12 24.6C4.12 24.0934 4.21333 23.6934 4.4 23.4C4.58667 23.1067 4.85333 22.9267 5.2 22.86C5.56 22.7934 6 22.8534 6.52 23.04L5.68 25.96ZM18.24 20.56L17.96 17.8C18.44 17.7467 18.8333 17.7467 19.14 17.8C19.4467 17.8534 19.6733 18 19.82 18.24C19.9667 18.4667 20.04 18.8267 20.04 19.32C20.04 19.8 19.8867 20.1067 19.58 20.24C19.2733 20.3734 18.8267 20.48 18.24 20.56ZM19.66 24.88L19.52 21.96C20.64 21.92 21.52 21.9067 22.16 21.92C22.8133 21.9334 23.2733 22.0534 23.54 22.28C23.82 22.4934 23.96 22.9 23.96 23.5C23.96 24.0467 23.6667 24.4134 23.08 24.6C22.5067 24.7734 21.3667 24.8667 19.66 24.88ZM34.4772 32.08C32.4772 32.08 30.7772 31.5867 29.3772 30.6C27.9772 29.6 26.9105 28.1867 26.1772 26.36C25.4439 24.5334 25.0772 22.3734 25.0772 19.88C25.0772 17.3334 25.3439 15.1467 25.8772 13.32C26.4239 11.4934 27.1572 9.98003 28.0772 8.78003C28.9972 7.5667 30.0372 6.61336 31.1972 5.92003C32.3705 5.22669 33.5839 4.73336 34.8372 4.44003C36.1039 4.14669 37.3439 4.00003 38.5572 4.00003C40.2772 4.00003 41.5772 4.1867 42.4572 4.56003C43.3505 4.93336 43.7972 5.48003 43.7972 6.20003C43.7972 6.68003 43.6705 7.00003 43.4172 7.16003C43.1639 7.32003 42.7972 7.38669 42.3172 7.36003C41.8372 7.33336 41.2572 7.28003 40.5772 7.20003C39.9105 7.12003 39.1572 7.08003 38.3172 7.08003C37.1039 7.08003 36.0505 7.27336 35.1572 7.66003C34.2772 8.0467 33.5439 8.6067 32.9572 9.34003C32.3839 10.0734 31.9505 10.96 31.6572 12C31.3772 13.04 31.2372 14.2134 31.2372 15.52C31.2372 17.2 31.4772 18.7534 31.9572 20.18C32.4372 21.5934 33.1905 22.7334 34.2172 23.6C35.2572 24.4534 36.6105 24.88 38.2772 24.88C39.1705 24.88 40.0039 24.7334 40.7772 24.44C41.5505 24.1467 42.1705 23.6934 42.6372 23.08C43.1172 22.4534 43.3572 21.6534 43.3572 20.68C43.3572 20.36 43.3105 20.0934 43.2172 19.88C43.1372 19.6667 42.9905 19.5134 42.7772 19.42C42.5772 19.3267 42.3039 19.28 41.9572 19.28C41.5572 19.28 41.1572 19.2867 40.7572 19.3C40.3572 19.3134 39.9572 19.32 39.5572 19.32C38.4372 19.32 37.7039 19.1534 37.3572 18.82C37.0105 18.4734 36.8372 18.0934 36.8372 17.68C36.8372 17.2134 37.0172 16.8067 37.3772 16.46C37.7372 16.1134 38.4639 15.96 39.5572 16C40.2639 16.0134 40.9572 16.04 41.6372 16.08C42.3305 16.12 43.0239 16.1734 43.7172 16.24C44.5839 16.32 45.1839 16.5667 45.5172 16.98C45.8505 17.38 46.0372 17.92 46.0772 18.6C46.1039 18.8934 46.1239 19.2734 46.1372 19.74C46.1505 20.2067 46.1705 20.7267 46.1972 21.3C46.1972 21.4467 46.1972 21.6 46.1972 21.76C46.2105 21.9067 46.2239 22.06 46.2372 22.22C46.2505 22.34 46.2572 22.4667 46.2572 22.6C46.2572 22.72 46.2572 22.8467 46.2572 22.98C46.2705 23.1 46.2772 23.2267 46.2772 23.36C46.2905 23.5867 46.2972 23.82 46.2972 24.06C46.3105 24.2867 46.3239 24.52 46.3372 24.76C46.3505 24.9334 46.3572 25.1134 46.3572 25.3C46.3572 25.4734 46.3639 25.6534 46.3772 25.84C46.3905 26.0134 46.3972 26.1867 46.3972 26.36C46.4105 26.52 46.4172 26.6934 46.4172 26.88C46.4572 28.1734 46.4905 29.4134 46.5172 30.6C46.5572 31.7734 46.5839 32.72 46.5972 33.44C46.6105 34.1067 46.4372 34.6067 46.0772 34.94C45.7172 35.2734 45.3239 35.44 44.8972 35.44C44.4705 35.44 44.0772 35.2734 43.7172 34.94C43.3572 34.6067 43.1839 34.1334 43.1972 33.52C43.2372 32.6534 43.2905 31.86 43.3572 31.14C43.4239 30.4067 43.4639 29.64 43.4772 28.84C43.4772 28.4934 43.4372 28.24 43.3572 28.08C43.2905 27.92 43.1439 27.84 42.9172 27.84C42.6105 27.84 42.2572 28.0534 41.8572 28.48C41.4705 28.9067 40.9705 29.4 40.3572 29.96C39.7572 30.52 38.9839 31.0134 38.0372 31.44C37.0905 31.8667 35.9039 32.08 34.4772 32.08ZM28.9972 24.24C29.4372 24.24 29.8039 24.0867 30.0972 23.78C30.4039 23.46 30.5572 23.04 30.5572 22.52C30.5572 21.96 30.4039 21.5267 30.0972 21.22C29.7905 20.9134 29.3572 20.76 28.7972 20.76C28.3172 20.76 27.9239 20.9134 27.6172 21.22C27.3105 21.5134 27.1572 21.92 27.1572 22.44C27.1572 23.0534 27.3172 23.5067 27.6372 23.8C27.9705 24.0934 28.4239 24.24 28.9972 24.24ZM31.6372 28.88C32.1972 28.88 32.6439 28.74 32.9772 28.46C33.3105 28.18 33.4772 27.7734 33.4772 27.24C33.4772 26.6534 33.3372 26.2 33.0572 25.88C32.7905 25.56 32.3039 25.4 31.5972 25.4C31.1439 25.4 30.7639 25.5667 30.4572 25.9C30.1505 26.22 29.9972 26.68 29.9972 27.28C29.9972 27.7734 30.1305 28.1667 30.3972 28.46C30.6639 28.74 31.0772 28.88 31.6372 28.88ZM44.9172 22.24C44.8372 22.24 44.7572 22.24 44.6772 22.24C44.5972 22.24 44.5172 22.24 44.4372 22.24C44.2772 22.24 44.0839 22.1534 43.8572 21.98C43.6305 21.8067 43.5172 21.52 43.5172 21.12C43.5172 20.72 43.6105 20.4334 43.7972 20.26C43.9972 20.0867 44.1972 20 44.3972 20C44.4772 20 44.5372 20 44.5772 20C44.6172 20 44.6772 20 44.7572 20C45.1439 20 45.4105 20.0867 45.5572 20.26C45.7172 20.4334 45.7972 20.6934 45.7972 21.04C45.7972 21.52 45.7172 21.8334 45.5572 21.98C45.3972 22.1267 45.1839 22.2134 44.9172 22.24ZM34.0372 1.84003C34.2639 2.28003 34.4772 2.72669 34.6772 3.18003C34.8772 3.62003 35.0639 4.08003 35.2372 4.56003C35.4239 5.01336 35.4705 5.45336 35.3772 5.88003C35.2972 6.29336 35.0239 6.60003 34.5572 6.80003C34.1839 6.96003 33.8039 6.90669 33.4172 6.64003C33.0305 6.36003 32.7039 5.93336 32.4372 5.36003C32.2639 4.96003 32.0905 4.55336 31.9172 4.14003C31.7439 3.72669 31.5839 3.32003 31.4372 2.92003C31.1972 2.21336 31.0772 1.63336 31.0772 1.18003C31.0905 0.726694 31.3572 0.41336 31.8772 0.240027C32.3439 0.0800274 32.7372 0.140028 33.0572 0.420028C33.3772 0.686695 33.7039 1.16003 34.0372 1.84003ZM31.3172 8.28003L29.5572 10.48C28.2772 9.36003 27.3439 8.47336 26.7572 7.82003C26.1839 7.16669 25.8639 6.65336 25.7972 6.28003C25.7439 5.89336 25.8639 5.54669 26.1572 5.24003C26.6372 4.76003 27.2305 4.74003 27.9372 5.18003C28.6572 5.62003 29.7839 6.65336 31.3172 8.28003ZM50.9906 28.56C51.1906 27.48 51.4106 26.3134 51.6506 25.06C51.8906 23.8067 52.1373 22.52 52.3906 21.2C52.6573 19.8667 52.9173 18.56 53.1706 17.28C53.2106 17.1067 53.244 16.94 53.2706 16.78C53.2973 16.62 53.3306 16.46 53.3706 16.3C53.4106 16.14 53.4373 15.98 53.4506 15.82C53.504 15.5934 53.5506 15.3667 53.5906 15.14C53.6306 14.9 53.6706 14.6667 53.7106 14.44C53.804 14.0134 53.8906 13.6 53.9706 13.2C54.0506 12.8 54.124 12.4134 54.1906 12.04C55.0706 12.2134 55.8573 12.3467 56.5506 12.44C57.244 12.52 57.7906 12.4867 58.1906 12.34C58.5906 12.18 58.7906 11.8267 58.7906 11.28C58.7906 10.7734 58.484 10.4 57.8706 10.16C57.2706 9.92003 56.2173 9.72003 54.7106 9.56003C54.7906 9.16003 54.8706 8.7667 54.9506 8.38003C55.0306 7.99336 55.1173 7.60003 55.2106 7.20003C55.464 5.88003 56.0973 4.95336 57.1106 4.42003C58.1373 3.87336 59.4573 3.60003 61.0706 3.60003C62.7373 3.60003 64.104 3.94003 65.1706 4.62003C66.2373 5.2867 66.8706 6.32003 67.0706 7.72003C67.0973 7.80003 67.1106 7.87336 67.1106 7.94003C67.124 8.0067 67.1373 8.08003 67.1506 8.16003C65.3506 8.36003 64.0773 8.58003 63.3306 8.82003C62.5973 9.06003 62.2306 9.45336 62.2306 10C62.2306 10.5867 62.4773 10.9534 62.9706 11.1C63.464 11.2334 64.1106 11.2467 64.9106 11.14C65.724 11.0334 66.604 10.9067 67.5506 10.76C67.604 11.1734 67.6773 11.72 67.7706 12.4C67.8773 13.08 67.9906 13.8534 68.1106 14.72C68.1373 14.9067 68.164 15.1067 68.1906 15.32C68.2306 15.52 68.264 15.72 68.2906 15.92C68.3173 16.08 68.3373 16.24 68.3506 16.4C68.3773 16.56 68.404 16.72 68.4306 16.88C68.4573 17.04 68.4773 17.2067 68.4906 17.38C68.6773 18.66 68.864 19.9867 69.0506 21.36C69.2373 22.72 69.4173 24.0334 69.5906 25.3C69.764 26.5667 69.9106 27.7 70.0306 28.7C70.164 29.6867 70.2706 30.4534 70.3506 31C70.4706 31.9734 70.364 32.6667 70.0306 33.08C69.6973 33.5067 69.3106 33.72 68.8706 33.72C68.4973 33.72 68.1373 33.56 67.7906 33.24C67.4573 32.92 67.2173 32.36 67.0706 31.56C66.7106 29.5734 66.3506 27.4934 65.9906 25.32C65.644 23.1334 65.2706 20.8934 64.8706 18.6C64.6173 17.16 64.1973 16.1067 63.6106 15.44C63.024 14.7734 62.0573 14.44 60.7106 14.44C59.2973 14.44 58.2373 14.7867 57.5306 15.48C56.824 16.16 56.3906 17.16 56.2306 18.48C56.0173 20.2534 55.8173 22.02 55.6306 23.78C55.4573 25.54 55.2573 27.32 55.0306 29.12C54.9373 29.9734 54.6773 30.5667 54.2506 30.9C53.8373 31.2334 53.3906 31.4 52.9106 31.4C52.3373 31.4 51.824 31.18 51.3706 30.74C50.9306 30.3 50.804 29.5734 50.9906 28.56ZM54.4306 25L55.1906 22.2C57.0306 22.2267 58.864 22.26 60.6906 22.3C62.5173 22.34 64.3506 22.3734 66.1906 22.4C66.7506 22.4134 67.1773 22.54 67.4706 22.78C67.764 23.02 67.9106 23.3734 67.9106 23.84C67.9106 24.4134 67.764 24.8067 67.4706 25.02C67.1773 25.2334 66.7373 25.3334 66.1506 25.32C64.1773 25.2667 62.2173 25.22 60.2706 25.18C58.324 25.1267 56.3773 25.0667 54.4306 25ZM61.9906 30.12C61.1106 30.08 60.5106 29.94 60.1906 29.7C59.8706 29.46 59.7106 29.12 59.7106 28.68C59.7106 28.24 59.904 27.9 60.2906 27.66C60.6906 27.42 61.2973 27.2934 62.1106 27.28C62.9906 27.2534 63.8706 27.24 64.7506 27.24C65.644 27.24 66.5506 27.2534 67.4706 27.28L68.1106 30.2C67.0573 30.2 66.0173 30.1934 64.9906 30.18C63.9773 30.1667 62.9773 30.1467 61.9906 30.12ZM54.7906 19.12C53.244 18.92 52.0706 18.74 51.2706 18.58C50.484 18.42 49.9506 18.2334 49.6706 18.02C49.404 17.8067 49.2706 17.5267 49.2706 17.18C49.2706 16.5934 49.524 16.22 50.0306 16.06C50.5506 15.9 51.2373 15.86 52.0906 15.94C52.944 16.0067 53.8706 16.1134 54.8706 16.26L54.7906 19.12ZM52.8106 27.48C51.4506 27.4267 50.424 27.3467 49.7306 27.24C49.0373 27.1334 48.5773 26.98 48.3506 26.78C48.1106 26.5667 47.9906 26.2934 47.9906 25.96C47.9906 25.48 48.1573 25.14 48.4906 24.94C48.8106 24.74 49.3773 24.6334 50.1906 24.62C51.004 24.5934 52.1306 24.6134 53.5706 24.68L52.8106 27.48ZM66.2706 20.48L65.5106 17.84C66.0573 17.72 66.5106 17.68 66.8706 17.72C67.244 17.76 67.524 17.92 67.7106 18.2C67.8973 18.4667 67.9906 18.8934 67.9906 19.48C67.9906 19.88 67.8373 20.1467 67.5306 20.28C67.2373 20.4134 66.8173 20.48 66.2706 20.48ZM66.3906 25.32L66.4306 22.44C67.0973 22.4534 67.6106 22.4934 67.9706 22.56C68.344 22.6134 68.5973 22.7534 68.7306 22.98C68.8773 23.1934 68.9506 23.5467 68.9506 24.04C68.9506 24.64 68.7573 25.0067 68.3706 25.14C67.9973 25.2734 67.3373 25.3334 66.3906 25.32ZM82.8431 22.16C82.7498 22.16 82.6565 22.16 82.5631 22.16C82.4831 22.16 82.3898 22.16 82.2831 22.16C81.9231 22.16 81.6498 22.06 81.4631 21.86C81.2898 21.66 81.2031 21.4534 81.2031 21.24C81.2031 21.0134 81.2898 20.8134 81.4631 20.64C81.6498 20.4534 81.9098 20.36 82.2431 20.36C82.3631 20.36 82.4898 20.36 82.6231 20.36C82.7565 20.36 82.8831 20.36 83.0031 20.36C83.3231 20.36 83.5565 20.44 83.7031 20.6C83.8498 20.7467 83.9231 20.9334 83.9231 21.16C83.9231 21.4 83.8298 21.6267 83.6431 21.84C83.4565 22.0534 83.1898 22.16 82.8431 22.16ZM81.5231 15.68C81.4431 15.68 81.3631 15.68 81.2831 15.68C81.2031 15.68 81.1231 15.68 81.0431 15.68C80.5898 15.68 80.2898 15.5534 80.1431 15.3C79.9965 15.0334 79.9231 14.7334 79.9231 14.4C79.9231 14.1334 80.0031 13.8934 80.1631 13.68C80.3231 13.4667 80.5498 13.36 80.8431 13.36C80.9631 13.36 81.0898 13.36 81.2231 13.36C81.3565 13.36 81.4831 13.36 81.6031 13.36C81.9231 13.36 82.1831 13.4734 82.3831 13.7C82.5831 13.9134 82.6831 14.2134 82.6831 14.6C82.6831 14.96 82.6165 15.2334 82.4831 15.42C82.3631 15.5934 82.0431 15.68 81.5231 15.68ZM75.2031 10.72C75.8431 10.72 76.3231 10.8934 76.6431 11.24C76.9631 11.5734 77.1231 12.1067 77.1231 12.84C77.1231 13.4 76.9698 13.8267 76.6631 14.12C76.3565 14.4134 75.9098 14.56 75.3231 14.56C74.6431 14.56 74.1231 14.3667 73.7631 13.98C73.4165 13.58 73.2431 13.04 73.2431 12.36C73.2431 11.8 73.4231 11.3867 73.7831 11.12C74.1565 10.8534 74.6298 10.72 75.2031 10.72ZM72.0031 30.08C72.0031 29.6134 72.1165 29.2734 72.3431 29.06C72.5831 28.8334 72.9498 28.64 73.4431 28.48C73.7498 28.3734 74.0698 28.2867 74.4031 28.22C74.7498 28.14 75.1098 28.04 75.4831 27.92C76.0831 27.72 76.5165 27.4934 76.7831 27.24C77.0498 26.9867 77.2298 26.6134 77.3231 26.12C77.3498 26 77.3698 25.8867 77.3831 25.78C77.4098 25.6734 77.4298 25.56 77.4431 25.44C78.9498 25.7334 79.9698 25.78 80.5031 25.58C81.0365 25.3667 81.3031 25 81.3031 24.48C81.3165 24.0934 81.0898 23.8 80.6231 23.6C80.1698 23.4 79.2565 23.24 77.8831 23.12C77.9631 22.72 78.0431 22.3267 78.1231 21.94C78.2165 21.5534 78.2831 21.16 78.3231 20.76C79.2165 20.8134 79.9231 20.8134 80.4431 20.76C80.9631 20.6934 81.3298 20.5734 81.5431 20.4C81.7698 20.2267 81.8831 19.98 81.8831 19.66C81.8831 19.2467 81.6565 18.9334 81.2031 18.72C80.7631 18.4934 79.9498 18.32 78.7631 18.2C79.0165 16.76 79.2565 15.3134 79.4831 13.86C79.7098 12.3934 79.9231 10.9334 80.1231 9.48003C80.2031 8.88003 80.1565 8.50003 79.9831 8.34003C79.8098 8.18003 79.4831 8.12003 79.0031 8.16003C78.2965 8.17336 77.7165 8.20669 77.2631 8.26003C76.8231 8.31336 76.2831 8.36003 75.6431 8.40003C74.9098 8.41336 74.3098 8.33336 73.8431 8.16003C73.3898 7.97336 73.1631 7.56003 73.1631 6.92003C73.1631 6.37336 73.3831 5.96003 73.8231 5.68003C74.2765 5.40003 74.9898 5.21336 75.9631 5.12003C77.4031 4.97336 79.0965 4.81336 81.0431 4.64003C82.9898 4.45336 84.8298 4.3067 86.5631 4.20003C87.4298 4.13336 88.0565 4.1867 88.4431 4.36003C88.8431 4.52003 89.0431 4.88003 89.0431 5.44003C89.0431 5.92003 88.8698 6.30003 88.5231 6.58003C88.1765 6.86003 87.7231 7.1067 87.1631 7.32003C86.7231 7.49336 86.2498 7.65336 85.7431 7.80003C85.2498 7.94669 84.6698 8.1467 84.0031 8.40003C83.5231 8.57336 83.2098 8.78003 83.0631 9.02003C82.9298 9.24669 82.8831 9.56003 82.9231 9.96003C83.1631 12.84 83.4498 15.72 83.7831 18.6C84.1165 21.48 84.4831 24.36 84.8831 27.24C84.9498 27.68 85.0765 28.0134 85.2631 28.24C85.4631 28.4534 85.7631 28.6134 86.1631 28.72C86.5098 28.8 86.8165 28.86 87.0831 28.9C87.3498 28.94 87.6431 29 87.9631 29.08C88.3498 29.16 88.6965 29.2934 89.0031 29.48C89.3231 29.6534 89.4831 29.9734 89.4831 30.44C89.4831 30.8534 89.3765 31.1667 89.1631 31.38C88.9498 31.58 88.6565 31.7134 88.2831 31.78C87.9098 31.8467 87.4831 31.88 87.0031 31.88C86.8298 31.88 86.5498 31.88 86.1631 31.88C85.7898 31.8667 85.3565 31.8534 84.8631 31.84C84.7165 31.84 84.5631 31.8334 84.4031 31.82C84.2431 31.8067 84.0765 31.8 83.9031 31.8C83.7431 31.8 83.5765 31.8 83.4031 31.8C83.2298 31.8 83.0431 31.8 82.8431 31.8C82.6565 31.7867 82.4698 31.78 82.2831 31.78C82.0965 31.7667 81.9031 31.76 81.7031 31.76C81.3831 31.7467 81.0565 31.74 80.7231 31.74C80.4031 31.74 80.0831 31.7334 79.7631 31.72C79.5498 31.7067 79.3298 31.7 79.1031 31.7C78.8898 31.6867 78.6765 31.68 78.4631 31.68C78.2631 31.6667 78.0565 31.66 77.8431 31.66C77.6965 31.66 77.5431 31.66 77.3831 31.66C77.2365 31.6467 77.0898 31.64 76.9431 31.64C76.7965 31.6267 76.6565 31.62 76.5231 31.62C76.0565 31.5934 75.6365 31.5734 75.2631 31.56C74.9031 31.5467 74.6165 31.5334 74.4031 31.52C73.6831 31.48 73.1031 31.3667 72.6631 31.18C72.2231 30.98 72.0031 30.6134 72.0031 30.08ZM92.5084 29.44C92.5218 28.48 92.5484 27.3467 92.5884 26.04C92.6418 24.72 92.7018 23.3267 92.7684 21.86C92.8351 20.38 92.9084 18.92 92.9884 17.48C92.9884 17.2534 92.9951 17.04 93.0084 16.84C93.0351 16.6267 93.0484 16.4134 93.0484 16.2C93.0751 15.9734 93.0884 15.76 93.0884 15.56C93.0884 15.3467 93.0951 15.1334 93.1084 14.92C93.1351 14.52 93.1551 14.14 93.1684 13.78C93.1951 13.4067 93.2151 13.04 93.2284 12.68C94.7884 12.64 95.9684 12.5534 96.7684 12.42C97.5818 12.2867 98.1284 12.0934 98.4084 11.84C98.6884 11.5867 98.8151 11.2534 98.7884 10.84C98.7484 10.2934 98.3551 9.96003 97.6084 9.84003C96.8751 9.72003 95.4684 9.77336 93.3884 10C93.4151 9.69336 93.4351 9.40003 93.4484 9.12003C93.4751 8.82669 93.4951 8.53336 93.5084 8.24003C93.6551 6.57336 94.0684 5.39336 94.7484 4.70003C95.4418 3.99336 96.3818 3.64003 97.5684 3.64003C98.6884 3.64003 99.5951 3.93336 100.288 4.52003C100.995 5.09336 101.708 6.08003 102.428 7.48003C102.948 8.48003 103.515 9.73336 104.128 11.24C104.742 12.7467 105.375 14.3667 106.028 16.1C106.695 17.82 107.355 19.5267 108.008 21.22C108.662 22.9 109.282 24.4134 109.868 25.76C110.015 26.1067 110.215 26.32 110.468 26.4C110.735 26.4667 110.968 26.4134 111.168 26.24C111.382 26.0667 111.482 25.7867 111.468 25.4C111.415 23.36 111.355 21.1734 111.288 18.84C111.222 16.4934 111.162 14.1934 111.108 11.94C111.068 9.67336 111.028 7.64003 110.988 5.84003C110.962 4.97336 111.068 4.31336 111.308 3.86003C111.548 3.39336 112.028 3.16003 112.748 3.16003C113.495 3.16003 113.975 3.39336 114.188 3.86003C114.402 4.31336 114.508 4.94669 114.508 5.76003C114.508 7.74669 114.508 9.95336 114.508 12.38C114.508 14.7934 114.495 17.26 114.468 19.78C114.455 22.3 114.415 24.7067 114.348 27C114.308 28.3334 113.935 29.2734 113.228 29.82C112.535 30.3667 111.775 30.64 110.948 30.64C110.388 30.64 109.815 30.5267 109.228 30.3C108.642 30.0734 108.042 29.64 107.428 29C106.295 27.76 105.195 26.4334 104.128 25.02C103.062 23.5934 102.028 22.1934 101.028 20.82C100.042 19.4334 99.0751 18.1867 98.1284 17.08C97.9018 16.8134 97.7284 16.64 97.6084 16.56C97.5018 16.48 97.3751 16.44 97.2284 16.44C96.8951 16.44 96.6418 16.56 96.4684 16.8C96.3084 17.04 96.2284 17.36 96.2284 17.76C96.2284 19.04 96.2618 20.3267 96.3284 21.62C96.4084 22.9134 96.4751 24.2134 96.5284 25.52C96.5951 26.8267 96.6284 28.1334 96.6284 29.44C96.6284 30.3867 96.4751 31.12 96.1684 31.64C95.8618 32.1467 95.3084 32.4 94.5084 32.4C93.6951 32.4 93.1551 32.1134 92.8884 31.54C92.6218 30.9534 92.4951 30.2534 92.5084 29.44ZM111.268 6.84003C111.455 6.85336 111.628 6.87336 111.788 6.90003C111.962 6.91336 112.135 6.93336 112.308 6.96003C112.548 7.00003 112.748 7.08003 112.908 7.20003C113.082 7.32003 113.208 7.48003 113.288 7.68003C113.382 7.86669 113.428 8.08003 113.428 8.32003C113.428 8.54669 113.388 8.75336 113.308 8.94003C113.228 9.11336 113.095 9.26003 112.908 9.38003C112.735 9.48669 112.495 9.54669 112.188 9.56003C112.028 9.56003 111.868 9.56003 111.708 9.56003C111.548 9.56003 111.388 9.56003 111.228 9.56003C109.948 9.50669 108.982 9.42003 108.328 9.30003C107.675 9.18003 107.235 9.01336 107.008 8.80003C106.782 8.5867 106.668 8.30669 106.668 7.96003C106.668 7.57336 106.782 7.28003 107.008 7.08003C107.248 6.86669 107.695 6.74003 108.348 6.70003C109.015 6.64669 109.988 6.69336 111.268 6.84003ZM112.588 9.88003C112.668 9.88003 112.748 9.88003 112.828 9.88003C112.908 9.88003 112.988 9.88003 113.068 9.88003C113.255 9.88003 113.475 10.0067 113.728 10.26C113.982 10.5 114.108 10.8267 114.108 11.24C114.108 11.64 113.995 11.9534 113.768 12.18C113.555 12.4067 113.355 12.52 113.168 12.52C113.048 12.52 112.948 12.52 112.868 12.52C112.802 12.52 112.702 12.52 112.568 12.52C112.248 12.52 112.008 12.4067 111.848 12.18C111.702 11.94 111.628 11.6 111.628 11.16C111.628 10.6934 111.715 10.3667 111.888 10.18C112.062 9.98003 112.295 9.88003 112.588 9.88003ZM113.468 12.48C113.655 12.4534 113.808 12.4334 113.928 12.42C114.062 12.4067 114.188 12.4 114.308 12.4C115.335 12.32 116.095 12.32 116.588 12.4C117.082 12.48 117.402 12.6267 117.548 12.84C117.695 13.0534 117.768 13.32 117.768 13.64C117.768 14 117.695 14.3 117.548 14.54C117.415 14.78 117.102 14.9534 116.608 15.06C116.128 15.1667 115.388 15.2 114.388 15.16C114.228 15.16 114.055 15.16 113.868 15.16C113.695 15.1467 113.535 15.12 113.388 15.08C113.015 15 112.748 14.8334 112.588 14.58C112.428 14.3134 112.348 14.0134 112.348 13.68C112.348 13.3467 112.448 13.0734 112.648 12.86C112.862 12.6467 113.135 12.52 113.468 12.48ZM95.4884 25.08C96.1551 25.08 96.8484 25.0934 97.5684 25.12C98.2884 25.1334 99.0284 25.16 99.7884 25.2C100.388 25.2267 100.862 25.36 101.208 25.6C101.568 25.84 101.748 26.2134 101.748 26.72C101.748 27.2934 101.562 27.6934 101.188 27.92C100.828 28.1467 100.295 28.24 99.5884 28.2C98.7751 28.16 97.9751 28.1134 97.1884 28.06C96.4018 27.9934 95.7151 27.9334 95.1284 27.88C94.3951 27.8 93.9351 27.6334 93.7484 27.38C93.5618 27.1267 93.4684 26.8134 93.4684 26.44C93.4684 26 93.6018 25.6667 93.8684 25.44C94.1351 25.2 94.6751 25.08 95.4884 25.08ZM99.6684 27.88C99.3884 27.88 99.1418 27.7734 98.9284 27.56C98.7284 27.3334 98.6284 27.04 98.6284 26.68C98.6284 26.32 98.7418 26.04 98.9684 25.84C99.1951 25.6267 99.5351 25.52 99.9884 25.52C100.228 25.52 100.455 25.62 100.668 25.82C100.882 26.0067 100.988 26.28 100.988 26.64C100.988 27.0134 100.875 27.3134 100.648 27.54C100.435 27.7667 100.108 27.88 99.6684 27.88ZM101.948 17.12C102.508 17.12 102.935 16.9334 103.228 16.56C103.522 16.1867 103.668 15.6934 103.668 15.08C103.668 14.64 103.495 14.2467 103.148 13.9C102.815 13.54 102.335 13.36 101.708 13.36C101.175 13.36 100.742 13.5467 100.408 13.92C100.075 14.28 99.9084 14.8 99.9084 15.48C99.9084 15.9734 100.075 16.3734 100.408 16.68C100.755 16.9734 101.268 17.12 101.948 17.12Z" fill="#EDF100"/>
</g>
<defs>
<filter id="filter0_n_7_5" x="0" y="0" width="117.768" height="35.4399" filterUnits="userSpaceOnUse" color-interpolation-filters="sRGB">
<feFlood flood-opacity="0" result="BackgroundImageFix"/>
<feBlend mode="normal" in="SourceGraphic" in2="BackgroundImageFix" result="shape"/>
<feTurbulence type="fractalNoise" baseFrequency="0.5 0.5" stitchTiles="stitch" numOctaves="3" result="noise" seed="352" />
<feColorMatrix in="noise" type="luminanceToAlpha" result="alphaNoise" />
<feComponentTransfer in="alphaNoise" result="coloredNoise1">
<feFuncA type="discrete" tableValues="1 1 1 1 1 1 1 1 1 1 1 1 1 1 1 1 1 1 1 1 1 1 1 1 1 1 1 1 1 1 1 1 1 1 1 1 1 1 1 1 1 1 1 1 1 1 1 1 1 1 1 0 0 0 0 0 0 0 0 0 0 0 0 0 0 0 0 0 0 0 0 0 0 0 0 0 0 0 0 0 0 0 0 0 0 0 0 0 0 0 0 0 0 0 0 0 0 0 0 0 "/>
</feComponentTransfer>
<feComposite operator="in" in2="shape" in="coloredNoise1" result="noise1Clipped" />
<feComponentTransfer in="alphaNoise" result="coloredNoise2">
<feFuncA type="discrete" tableValues="0 0 0 0 0 0 0 0 0 0 0 0 0 0 0 0 0 0 0 0 0 0 0 0 0 0 0 0 0 0 0 0 0 0 0 0 0 0 0 0 0 0 0 0 0 0 0 0 0 1 1 1 1 1 1 1 1 1 1 1 1 1 1 1 1 1 1 1 1 1 1 1 1 1 1 1 1 1 1 1 1 1 1 1 1 1 1 1 1 1 1 1 1 1 1 1 1 1 1 1 "/>
</feComponentTransfer>
<feComposite operator="in" in2="shape" in="coloredNoise2" result="noise2Clipped" />
<feFlood flood-color="rgba(255, 0, 208, 0.5)" result="color1Flood" />
<feComposite operator="in" in2="noise1Clipped" in="color1Flood" result="color1" />
<feFlood flood-color="rgba(13, 255, 0, 0.5)" result="color2Flood" />
<feComposite operator="in" in2="noise2Clipped" in="color2Flood" result="color2" />
<feMerge result="effect1_noise_7_5">
<feMergeNode in="shape" />
<feMergeNode in="color1" />
<feMergeNode in="color2" />
</feMerge>
</filter>
</defs>
</svg>
