<svg width="129" height="42" viewBox="0 0 129 42" fill="none" xmlns="http://www.w3.org/2000/svg">
<path d="M12.375 1.17188C13.9375 1.26562 15.25 1.34375 16.3125 1.40625C17.4062 1.4375 18.3125 1.46875 19.0312 1.5C19.8438 1.53125 20.5312 1.53125 21.0938 1.5C21.6562 1.46875 22.4219 1.39062 23.3906 1.26562C24.2031 1.17188 25.2812 1.03125 26.625 0.84375C28 0.625 29.7031 0.34375 31.7344 0C31.0156 0.71875 30.4531 1.375 30.0469 1.96875C29.6719 2.53125 29.375 3.01562 29.1562 3.42188C28.9062 3.92188 28.7344 4.34375 28.6406 4.6875C28.5781 5 28.6406 5.78125 28.8281 7.03125C29.0156 8.28125 29.2812 9.76562 29.625 11.4844C29.9688 13.1719 30.3438 14.9844 30.75 16.9219C31.1562 18.8281 31.5625 20.625 31.9688 22.3125C32.375 23.9688 32.7344 25.3906 33.0469 26.5781C33.3906 27.7344 33.6406 28.4219 33.7969 28.6406C34.2656 29.2969 34.5625 29.7344 34.6875 29.9531C34.8125 30.1406 35.0312 30.3125 35.3438 30.4688C35.4688 30.5312 35.6719 30.625 35.9531 30.75C36.2031 30.875 36.5312 31.0312 36.9375 31.2188C37.375 31.4062 37.9219 31.625 38.5781 31.875C37.3594 31.9375 36.3125 31.9844 35.4375 32.0156C34.5625 32.0156 33.8438 32.0312 33.2812 32.0625C32.625 32.0938 32.0625 32.125 31.5938 32.1562C31.125 32.1562 30.5625 32.1875 29.9062 32.25C29.3438 32.3125 28.6094 32.375 27.7031 32.4375C26.8281 32.5 25.7969 32.5625 24.6094 32.625C25.2344 32.1875 25.7344 31.7969 26.1094 31.4531C26.5156 31.0781 26.8281 30.7656 27.0469 30.5156C27.2969 30.2031 27.4688 29.9219 27.5625 29.6719C27.625 29.3906 27.6719 28.9688 27.7031 28.4062C27.7344 27.9062 27.7344 27.25 27.7031 26.4375C27.6719 25.5938 27.5938 24.5 27.4688 23.1562L15.1406 24.4219C14.8281 24.9531 14.5938 25.4219 14.4375 25.8281C14.2812 26.2031 14.1719 26.5312 14.1094 26.8125C14.0156 27.1562 13.9844 27.4375 14.0156 27.6562C14.0781 27.9062 14.1875 28.2031 14.3438 28.5469C14.5 28.8594 14.7188 29.2344 15 29.6719C15.3125 30.0781 15.7656 30.5625 16.3594 31.125C15.5781 31.0938 14.7812 31.0781 13.9688 31.0781C13.1562 31.0781 12.4062 31.0938 11.7188 31.125C10.9062 31.1562 10.1094 31.1875 9.32812 31.2188C8.54688 31.25 7.65625 31.2969 6.65625 31.3594C5.8125 31.4219 4.82812 31.5 3.70312 31.5938C2.54688 31.6562 1.3125 31.75 0 31.875C0.8125 31.5 1.5 31.125 2.0625 30.75C2.625 30.3438 3.09375 29.9688 3.46875 29.625C3.90625 29.25 4.28125 28.8906 4.59375 28.5469C4.8125 28.2344 5.25 27.5156 5.90625 26.3906C6.5625 25.2344 7.29688 23.875 8.10938 22.3125C8.95312 20.75 9.82812 19.0781 10.7344 17.2969C11.6719 15.5156 12.5156 13.8438 13.2656 12.2812C14.0156 10.6875 14.625 9.3125 15.0938 8.15625C15.5625 7 15.7969 6.25 15.7969 5.90625C15.7344 5.5 15.5781 5.04688 15.3281 4.54688C15.1094 4.10938 14.7656 3.60938 14.2969 3.04688C13.8594 2.48438 13.2188 1.85937 12.375 1.17188ZM26.9062 19.6875C26.7188 18.5938 26.5469 17.6562 26.3906 16.875C26.2344 16.0625 26.1094 15.3906 26.0156 14.8594C25.8906 14.2344 25.7969 13.6875 25.7344 13.2188C25.6406 12.7812 25.5312 12.2188 25.4062 11.5312C25.2812 10.9375 25.125 10.2031 24.9375 9.32812C24.7812 8.42188 24.5781 7.34375 24.3281 6.09375C22.5469 9.65625 21.1562 12.4219 20.1562 14.3906C19.1875 16.3281 18.4844 17.75 18.0469 18.6562C17.5156 19.7188 17.2188 20.3438 17.1562 20.5312L26.9062 19.6875ZM58.0312 13.0312C57.9375 12.4062 57.8594 11.8906 57.7969 11.4844C57.7344 11.0469 57.6719 10.7031 57.6094 10.4531C57.5469 10.1406 57.5 9.90625 57.4688 9.75C57.4062 9.59375 57.3281 9.42188 57.2344 9.23438C57.1719 9.07812 57.0625 8.89062 56.9062 8.67188C56.7812 8.45312 56.625 8.20312 56.4375 7.92188C56.8438 8.04688 57.25 8.125 57.6562 8.15625C58.0938 8.1875 58.5 8.21875 58.875 8.25C59.2812 8.28125 59.7031 8.28125 60.1406 8.25C60.5781 8.25 61.0781 8.23438 61.6406 8.20312C62.1406 8.17188 62.7344 8.15625 63.4219 8.15625C64.1406 8.125 64.9531 8.07812 65.8594 8.01562C65.3281 8.14062 64.875 8.35938 64.5 8.67188C64.1562 8.95312 63.8594 9.26562 63.6094 9.60938C63.3281 9.98438 63.0938 10.3906 62.9062 10.8281C62.75 11.2344 62.6562 12.0156 62.625 13.1719C62.5938 14.2969 62.5938 15.6406 62.625 17.2031C62.6562 18.7344 62.6875 20.3906 62.7188 22.1719C62.7812 23.9531 62.8125 25.6562 62.8125 27.2812C62.8438 28.9062 62.8438 30.3906 62.8125 31.7344C62.7812 33.0469 62.7031 34.0156 62.5781 34.6406C62.1406 36.6094 61.3281 38.2031 60.1406 39.4219C58.9531 40.6719 57.3906 41.3438 55.4531 41.4375C53.1094 41.5312 51.25 41.3125 49.875 40.7812C48.5312 40.25 47.4844 39.5938 46.7344 38.8125C45.9844 38.0625 45.4219 37.2969 45.0469 36.5156C44.6719 35.7344 44.2812 35.1406 43.875 34.7344C43.5 34.3906 43.125 34.0625 42.75 33.75C42.4062 33.5 42.0469 33.25 41.6719 33C41.3281 32.75 40.9844 32.5938 40.6406 32.5312C41.5469 32.5625 42.3594 32.5781 43.0781 32.5781C43.7969 32.5781 44.4062 32.5781 44.9062 32.5781C45.4688 32.5781 45.9688 32.5625 46.4062 32.5312H47.9062H52.1719C51.5469 32.7188 51.0781 32.9219 50.7656 33.1406C50.4531 33.3906 50.2344 33.6406 50.1094 33.8906C49.9844 34.1719 49.9219 34.4531 49.9219 34.7344C50.0469 35.4844 50.4531 36.0312 51.1406 36.375C51.8281 36.7188 52.7656 36.9219 53.9531 36.9844C55.1094 37.0469 55.9062 37.0156 56.3438 36.8906C56.7812 36.7969 57.125 36.6094 57.375 36.3281C57.875 35.5781 58.2969 34.6094 58.6406 33.4219C58.8906 32.4219 59.0625 31.125 59.1562 29.5312C59.2812 27.9062 59.1406 25.9219 58.7344 23.5781C57.7344 24.9531 56.5781 25.9844 55.2656 26.6719C53.9531 27.3594 52.7031 27.8594 51.5156 28.1719C50.1094 28.5156 48.6875 28.6875 47.25 28.6875C43.4688 28.5312 40.6406 27.6562 38.7656 26.0625C36.8906 24.4688 36.0312 22.3281 36.1875 19.6406C36.2812 18.2969 36.6875 16.9531 37.4062 15.6094C38.1562 14.2656 39.125 13.0625 40.3125 12C41.5312 10.9375 42.9219 10.0938 44.4844 9.46875C46.0469 8.84375 47.6719 8.57812 49.3594 8.67188C50.6406 8.79688 51.8438 9.03125 52.9688 9.375C53.9375 9.6875 54.8906 10.125 55.8281 10.6875C56.7969 11.25 57.5312 12.0312 58.0312 13.0312ZM43.125 17.7188C42.9375 18.9375 43.0156 20.0781 43.3594 21.1406C43.7344 22.2031 44.25 23.125 44.9062 23.9062C45.5625 24.6562 46.2969 25.25 47.1094 25.6875C47.9219 26.0938 48.6875 26.2812 49.4062 26.25C50.9062 26.2188 52.2031 25.5469 53.2969 24.2344C54.3906 22.8906 55.0469 20.8906 55.2656 18.2344C55.3594 16.9219 55.1875 15.7969 54.75 14.8594C54.3438 13.8906 53.8281 13.1094 53.2031 12.5156C52.5781 11.9219 51.9219 11.5 51.2344 11.25C50.5469 11 50 10.8906 49.5938 10.9219C49.0312 10.9844 48.4062 11.1562 47.7188 11.4375C47.0625 11.6875 46.4219 12.0781 45.7969 12.6094C45.1719 13.1094 44.6094 13.7812 44.1094 14.625C43.6406 15.4688 43.3125 16.5 43.125 17.7188ZM69.7969 13.9219C69.9531 13.7344 70.0469 13.3906 70.0781 12.8906C70.1406 12.3594 70.2656 11.7656 70.4531 11.1094C70.6719 10.4531 71.0312 9.76562 71.5312 9.04688C72.0312 8.32812 72.8438 7.65625 73.9688 7.03125C75.0625 6.40625 76.125 6.03125 77.1562 5.90625C78.1875 5.78125 79.1719 5.82812 80.1094 6.04688C81.0469 6.26562 81.9219 6.60938 82.7344 7.07812C83.5781 7.54688 84.3438 8.0625 85.0312 8.625C85.5 9 85.875 9.54688 86.1562 10.2656C86.4375 10.9531 86.6562 11.7344 86.8125 12.6094C86.9688 13.4844 87.0781 14.4062 87.1406 15.375C87.2344 16.3125 87.2969 17.2344 87.3281 18.1406C87.3594 19.0156 87.375 19.8281 87.375 20.5781C87.4062 21.2969 87.4688 21.8906 87.5625 22.3594C87.6875 23.0469 87.9062 23.6406 88.2188 24.1406C88.5312 24.6094 88.875 25.0156 89.25 25.3594C89.625 25.6719 90 25.9219 90.375 26.1094C90.75 26.2969 91.0781 26.4375 91.3594 26.5312C91.5469 26.625 91.7188 26.6875 91.875 26.7188C92.1875 26.8438 92.4062 26.8438 92.5312 26.7188C92.3438 27.1562 92.1719 27.5312 92.0156 27.8438C91.8594 28.1562 91.7344 28.4219 91.6406 28.6406C91.5156 28.8906 91.4062 29.0938 91.3125 29.25C91.2188 29.4375 91.1094 29.6094 90.9844 29.7656C90.8906 29.9219 90.7656 30.0938 90.6094 30.2812C90.4531 30.4688 90.2969 30.6719 90.1406 30.8906C89.7344 30.7344 89.3438 30.5469 88.9688 30.3281C88.625 30.1094 88.3125 29.9062 88.0312 29.7188C87.6875 29.5 87.375 29.2812 87.0938 29.0625C86.8125 28.8438 86.5469 28.5938 86.2969 28.3125C86.0781 28.0625 85.8438 27.7969 85.5938 27.5156C85.375 27.2344 85.1875 26.9219 85.0312 26.5781C84.8438 26.9844 84.3906 27.5625 83.6719 28.3125C82.9844 29.0625 82.0781 29.75 80.9531 30.375C79.8281 30.9688 78.5156 31.3906 77.0156 31.6406C75.5469 31.8906 73.9219 31.7188 72.1406 31.125C71.3594 30.875 70.625 30.5156 69.9375 30.0469C69.25 29.5469 68.6562 28.9531 68.1562 28.2656C67.6875 27.5781 67.3438 26.7969 67.125 25.9219C66.9375 25.0156 66.9531 24.0156 67.1719 22.9219C67.3906 21.8281 67.7812 20.9062 68.3438 20.1562C68.9062 19.4062 69.5781 18.7969 70.3594 18.3281C71.1406 17.8594 72.0156 17.5 72.9844 17.25C73.9531 17 74.9531 16.8281 75.9844 16.7344C76.7969 16.7031 77.6094 16.75 78.4219 16.875C79.1094 17 79.8281 17.2344 80.5781 17.5781C81.3281 17.8906 81.9688 18.375 82.5 19.0312C82.4688 17.375 82.4062 16.0625 82.3125 15.0938C82.25 14.0938 82.1875 13.3281 82.125 12.7969C82 12.1719 81.8906 11.7344 81.7969 11.4844C81.6406 11.2656 81.4688 11.0156 81.2812 10.7344C81.125 10.4531 80.9219 10.2031 80.6719 9.98438C80.4219 9.73438 80.1094 9.53125 79.7344 9.375C79.3594 9.21875 78.9219 9.15625 78.4219 9.1875C77.8906 9.21875 77.4688 9.35938 77.1562 9.60938C76.8438 9.85938 76.5938 10.1562 76.4062 10.5C76.25 10.8125 76.1562 11.1562 76.125 11.5312C76.0938 11.9062 76.1094 12.2344 76.1719 12.5156C76.2344 12.7031 76.3281 12.9062 76.4531 13.125C76.5781 13.3125 76.75 13.5156 76.9688 13.7344C77.1875 13.9531 77.4844 14.1406 77.8594 14.2969C77.1406 14.3906 76.5 14.4688 75.9375 14.5312C75.375 14.5625 74.8906 14.6094 74.4844 14.6719C74.0156 14.7344 73.6094 14.7812 73.2656 14.8125C72.9219 14.8438 72.5156 14.9062 72.0469 15C71.6406 15.0625 71.1406 15.1406 70.5469 15.2344C69.9531 15.3281 69.2656 15.4531 68.4844 15.6094C68.6719 15.3906 68.8438 15.1875 69 15C69.1562 14.7812 69.2969 14.5938 69.4219 14.4375C69.5469 14.25 69.6719 14.0781 69.7969 13.9219ZM76.8281 19.5C76.2656 19.5312 75.7031 19.6719 75.1406 19.9219C74.5781 20.1406 74.0781 20.4688 73.6406 20.9062C73.2031 21.3125 72.8281 21.7969 72.5156 22.3594C72.2344 22.8906 72.0938 23.4844 72.0938 24.1406C72.0938 24.7969 72.25 25.375 72.5625 25.875C72.9062 26.3438 73.3438 26.7344 73.875 27.0469C74.4375 27.3594 75.0312 27.5469 75.6562 27.6094C76.3125 27.6719 76.9531 27.6094 77.5781 27.4219C78.1719 27.2031 78.7344 26.8594 79.2656 26.3906C79.7969 25.8906 80.25 25.3594 80.625 24.7969C81 24.2031 81.2656 23.625 81.4219 23.0625C81.5781 22.4688 81.5938 21.9844 81.4688 21.6094C81.2188 20.7969 80.6562 20.2344 79.7812 19.9219C78.9062 19.5781 77.9219 19.4375 76.8281 19.5ZM92.0625 11.9531L100.688 12.0469C100.188 13.9531 99.8125 15.5781 99.5625 16.9219C99.3438 18.2656 99.2031 19.3906 99.1406 20.2969C99.0156 21.3281 98.9844 22.2031 99.0469 22.9219C99.1406 23.5781 99.2969 24.2812 99.5156 25.0312C99.7031 25.6562 99.9844 26.375 100.359 27.1875C100.734 28 101.234 28.8125 101.859 29.625C101.484 29.5 101.078 29.4062 100.641 29.3438C100.203 29.2812 99.7969 29.2344 99.4219 29.2031C98.9844 29.1719 98.5469 29.1719 98.1094 29.2031C97.6719 29.2344 97.1875 29.2812 96.6562 29.3438C96.2188 29.4062 95.6875 29.4844 95.0625 29.5781C94.4375 29.6719 93.7812 29.7969 93.0938 29.9531C93.5625 28.5469 93.9219 27.3281 94.1719 26.2969C94.4531 25.2656 94.6562 24.4062 94.7812 23.7188C94.9062 22.9062 94.9844 22.25 95.0156 21.75C95.0156 21.125 95.0156 20.4219 95.0156 19.6406C95.0156 18.8281 95.0156 18.0469 95.0156 17.2969C95.0156 16.5469 95 15.8906 94.9688 15.3281C94.9375 14.7344 94.875 14.3594 94.7812 14.2031L94.3125 13.7344C94.125 13.5781 93.8438 13.3594 93.4688 13.0781C93.125 12.7656 92.6562 12.3906 92.0625 11.9531ZM95.3906 4.73438C96.0469 4.39062 96.7031 4.29688 97.3594 4.45312C98.0469 4.60938 98.5781 4.90625 98.9531 5.34375C99.3281 5.78125 99.4531 6.29688 99.3281 6.89062C99.2344 7.48438 98.7344 8.0625 97.8281 8.625C96.9219 9.15625 96.125 9.34375 95.4375 9.1875C94.75 9.03125 94.2656 8.70312 93.9844 8.20312C93.7031 7.70312 93.6562 7.125 93.8438 6.46875C94.0312 5.78125 94.5469 5.20312 95.3906 4.73438ZM105 27.75C105.219 26.7188 105.375 25.8125 105.469 25.0312C105.594 24.2188 105.688 23.5469 105.75 23.0156C105.812 22.3906 105.844 21.8594 105.844 21.4219C105.812 20.8906 105.781 20.2656 105.75 19.5469C105.75 18.7969 105.719 18.0625 105.656 17.3438C105.625 16.5938 105.578 15.9375 105.516 15.375C105.453 14.7812 105.375 14.3594 105.281 14.1094C105.156 13.8594 104.984 13.5938 104.766 13.3125C104.328 12.7812 103.688 12.2656 102.844 11.7656C103.562 11.6094 104.172 11.4844 104.672 11.3906C105.203 11.2656 105.641 11.1562 105.984 11.0625C106.359 10.9375 106.688 10.8281 106.969 10.7344C107.219 10.6406 107.516 10.5469 107.859 10.4531C108.141 10.3906 108.484 10.3125 108.891 10.2188C109.297 10.125 109.766 10.0156 110.297 9.89062L110.156 14.1562C111.156 12.9688 112.172 12.0781 113.203 11.4844C114.234 10.8906 115.203 10.4688 116.109 10.2188C117.141 9.90625 118.156 9.75 119.156 9.75C120.406 9.8125 121.562 10.0156 122.625 10.3594C123.719 10.7031 124.656 11.1094 125.438 11.5781C126.25 12.0156 126.906 12.4844 127.406 12.9844C127.906 13.4844 128.203 13.9219 128.297 14.2969C128.672 15.5156 128.766 16.6406 128.578 17.6719C128.391 18.6719 128.141 19.6562 127.828 20.625C127.547 21.5625 127.297 22.5 127.078 23.4375C126.891 24.375 126.969 25.3906 127.312 26.4844C127.438 26.7656 127.562 27.0469 127.688 27.3281C127.812 27.5781 127.969 27.8281 128.156 28.0781C128.344 28.3281 128.562 28.5312 128.812 28.6875C128.469 28.6562 128.125 28.6406 127.781 28.6406C127.438 28.6094 127.125 28.5781 126.844 28.5469C126.5 28.5156 126.188 28.4844 125.906 28.4531C125.594 28.4219 125.172 28.4062 124.641 28.4062C123.734 28.4062 122.328 28.4531 120.422 28.5469C120.703 27.8906 120.922 27.3438 121.078 26.9062C121.266 26.4375 121.422 26.0625 121.547 25.7812C121.672 25.4375 121.766 25.1719 121.828 24.9844C122.203 24.0781 122.422 23.0469 122.484 21.8906C122.578 20.7344 122.5 19.5625 122.25 18.375C122.156 17.9688 122 17.4844 121.781 16.9219C121.562 16.3594 121.266 15.8125 120.891 15.2812C120.547 14.75 120.125 14.2969 119.625 13.9219C119.156 13.5469 118.609 13.3281 117.984 13.2656C117.359 13.2031 116.656 13.3594 115.875 13.7344C115.125 14.1094 114.312 14.7969 113.438 15.7969C112.781 16.6406 112.266 17.6719 111.891 18.8906C111.547 19.9219 111.312 21.2188 111.188 22.7812C111.062 24.3125 111.25 26.1094 111.75 28.1719C111.312 28.1094 110.906 28.0781 110.531 28.0781C110.156 28.0469 109.844 28.0156 109.594 27.9844C109.281 27.9531 109 27.9219 108.75 27.8906C108.469 27.8906 108.156 27.875 107.812 27.8438C107.5 27.8438 107.109 27.8438 106.641 27.8438C106.172 27.8125 105.625 27.7812 105 27.75Z" fill="white"/>
</svg>
