<svg width="183" height="70" viewBox="0 0 183 70" fill="none" xmlns="http://www.w3.org/2000/svg">
<g filter="url(#filter0_g_7_15)">
<path d="M4 19.4285H9.14286V14.2856H14.2857V9.14275H19.4286V3.9999H24.5714V9.14275H29.7143V14.2856H34.8571V19.4285H40V55.4285H29.7143V45.1428H14.2857V55.4285H4V19.4285ZM14.2857 34.857H29.7143V24.5713H24.5714V19.4285H19.4286V24.5713H14.2857V34.857ZM45.1562 55.4285H70.8705V45.1428H65.7277V50.2856H50.2991V45.1428H45.1562V19.4285H50.2991V14.2856H81.1562V60.5713H76.0134V65.7142H50.2991V60.5713H45.1562V55.4285ZM55.442 39.9999H70.8705V24.5713H55.442V39.9999ZM91.4554 50.2856H86.3125V34.857H91.4554V29.7142H112.027V24.5713H86.3125V19.4285H91.4554V14.2856H117.17V19.4285H122.312V55.4285H112.027V50.2856H106.884V55.4285H91.4554V50.2856ZM96.5982 45.1428H112.027V39.9999H96.5982V45.1428ZM127.469 3.9999H137.754V14.2856H127.469V3.9999ZM127.469 19.4285H137.754V55.4285H127.469V19.4285ZM153.223 19.4285H158.366V14.2856H173.795V19.4285H178.938V55.4285H168.652V24.5713H153.223V55.4285H142.938V14.2856H153.223V19.4285Z" fill="#FF6A00"/>
</g>
<defs>
<filter id="filter0_g_7_15" x="0" y="0" width="182.938" height="69.7141" filterUnits="userSpaceOnUse" color-interpolation-filters="sRGB">
<feFlood flood-opacity="0" result="BackgroundImageFix"/>
<feBlend mode="normal" in="SourceGraphic" in2="BackgroundImageFix" result="shape"/>
<feTurbulence type="fractalNoise" baseFrequency="0.45454543828964233 0.45454543828964233" numOctaves="3" seed="4445" />
<feDisplacementMap in="shape" scale="8" xChannelSelector="R" yChannelSelector="G" result="displacedImage" width="100%" height="100%" />
<feMerge result="effect1_texture_7_15">
<feMergeNode in="displacedImage"/>
</feMerge>
</filter>
</defs>
</svg>
