<svg width="134" height="52" viewBox="0 0 134 52" fill="none" xmlns="http://www.w3.org/2000/svg">
<g filter="url(#filter0_i_7_4)">
<path d="M37.344 27.0719C37.888 27.0719 38.16 27.8079 38.16 29.2799C38.16 30.0799 37.824 31.0559 37.152 32.2079C36.48 33.3279 35.6 34.3679 34.512 35.3279C33.456 36.2559 32.272 37.0239 30.96 37.6319C29.648 38.2399 28.368 38.5439 27.12 38.5439C25.232 38.5439 23.92 38.0799 23.184 37.1519C22.48 36.1919 22.128 34.7999 22.128 32.9759C22.128 31.1199 22.848 27.9519 24.288 23.4719C19.872 23.2799 16.656 23.1839 14.64 23.1839H13.968C13.392 26.7359 13.104 30.4639 13.104 34.3679C13.104 36.0959 12.448 37.2799 11.136 37.9199C10.528 38.2079 9.93599 38.4799 9.35999 38.7359C8.81599 38.9919 8.22399 39.1199 7.58399 39.1199C5.98399 39.1199 5.18399 37.6799 5.18399 34.7999C5.18399 31.9199 5.83999 28.2239 7.15199 23.7119C5.74399 23.8719 4.49599 24.0319 3.40799 24.1919C2.35199 24.3519 1.51999 24.4319 0.911991 24.4319C0.303991 24.4319 -8.61287e-06 24.2719 -8.61287e-06 23.9519C-8.61287e-06 22.9919 0.783991 22.0159 2.35199 21.0239C3.95199 20.0319 6.11199 19.2799 8.83199 18.7679C11.84 11.1199 15.52 6.0159 19.872 3.4559C21.472 2.4959 23.168 2.0159 24.96 2.0159C28.16 2.0479 30.464 2.9119 31.872 4.6079C33.312 6.3039 34.032 8.5599 34.032 11.3759C34.064 14.1599 33.216 17.7919 31.488 22.2719C30.848 23.9999 30.256 25.5679 29.712 26.9759C29.168 28.3839 28.896 29.5199 28.896 30.3839C28.896 31.2479 28.96 31.9039 29.088 32.3519C29.216 32.7999 29.52 33.0239 30 33.0239C30.864 33.0239 32.896 31.3599 36.096 28.0319C36.672 27.3919 37.088 27.0719 37.344 27.0719ZM27.12 12.7679C27.12 9.9839 26.08 8.5919 24 8.5919C21.888 8.5919 20.064 9.4879 18.528 11.2799C17.024 13.0399 15.856 15.4079 15.024 18.3839L25.92 18.5279C26.72 15.9679 27.12 14.0479 27.12 12.7679ZM54.159 16.5599C54.607 15.1519 55.327 14.4479 56.319 14.4479C57.215 14.4799 58.063 15.1199 58.863 16.3679C59.663 17.5839 60.063 18.5279 60.063 19.1999C59.999 20.5119 59.599 22.6079 58.863 25.4879C58.127 28.3359 57.087 32.0479 55.743 36.6239C57.855 34.9919 59.935 32.8639 61.983 30.2399C62.687 29.3439 63.279 28.6239 63.759 28.0799C64.271 27.5039 64.687 27.2159 65.007 27.2159C65.455 27.2159 65.679 27.7279 65.679 28.7519C65.679 30.7679 64.543 33.1199 62.271 35.8079C60.031 38.4959 57.279 40.5919 54.015 42.0959C53.631 43.3759 53.215 44.5919 52.767 45.7439C52.319 46.8959 51.743 47.9039 51.039 48.7679C49.503 50.6239 47.167 51.5519 44.031 51.5519C41.919 51.5519 40.111 50.9439 38.607 49.7279C37.135 48.5119 36.399 46.9919 36.399 45.1679C36.399 44.1759 36.719 43.3919 37.359 42.8159C38.031 42.2399 38.943 41.7759 40.095 41.4239C41.247 41.0719 42.591 40.7679 44.127 40.5119C45.695 40.2559 47.359 39.9359 49.119 39.5519C49.279 39.0079 49.407 38.4799 49.503 37.9679C49.631 37.4239 49.759 36.8799 49.887 36.3359C48.127 37.9679 45.967 38.7839 43.407 38.7839C40.879 38.7839 38.927 38.0799 37.551 36.6719C36.175 35.2639 35.503 33.5519 35.535 31.5359C35.535 26.0959 37.343 21.8079 40.959 18.6719C43.455 16.5279 46.047 15.4559 48.735 15.4559C49.663 15.4559 50.655 15.5679 51.711 15.7919C52.799 16.0159 53.615 16.2719 54.159 16.5599ZM42.591 29.9519C42.591 32.4159 43.503 33.6479 45.327 33.6479C46.351 33.6479 47.391 33.2639 48.447 32.4959C49.503 31.7279 50.351 30.4799 50.991 28.7519C51.471 26.5119 51.967 24.4479 52.479 22.5599C53.023 20.6719 53.391 19.3599 53.583 18.6239C50.895 18.9759 48.383 20.1759 46.047 22.2239C43.743 24.2719 42.591 26.8479 42.591 29.9519ZM47.631 43.9679C46.479 44.1919 45.471 44.3679 44.607 44.4959C43.743 44.6239 43.023 44.7359 42.447 44.8319C41.903 44.9279 41.487 45.0399 41.199 45.1679C40.943 45.2959 40.815 45.5039 40.815 45.7919C40.815 46.3679 41.167 46.8639 41.871 47.2799C42.607 47.6959 43.327 47.8879 44.031 47.8559C45.247 47.8559 46.447 46.5599 47.631 43.9679ZM92.7626 27.0719C93.3386 27.0719 93.6266 27.8079 93.6266 29.2799C93.6266 30.0799 93.2906 31.0559 92.6186 32.2079C91.9466 33.3279 91.0666 34.3679 89.9786 35.3279C88.9226 36.2559 87.7386 37.0239 86.4266 37.6319C85.1146 38.2399 83.8346 38.5439 82.5866 38.5439C80.8906 38.5439 79.7546 37.0559 79.1786 34.0799C78.3466 35.4559 77.2586 36.5919 75.9146 37.4879C74.5706 38.3519 72.7626 38.7839 70.4906 38.7839C68.2506 38.7839 66.4426 38.0799 65.0666 36.6719C63.6906 35.2639 63.0186 33.5519 63.0506 31.5359C63.0506 26.0959 64.8586 21.8079 68.4746 18.6719C70.0106 17.3599 71.4346 16.4959 72.7466 16.0799C74.0906 15.6639 75.4986 15.4559 76.9706 15.4559C78.4426 15.4559 79.6426 15.7119 80.5706 16.2239C81.0186 15.2959 81.5306 14.8319 82.1066 14.8319C83.2266 14.8319 84.2826 15.3279 85.2746 16.3199C86.2986 17.2799 86.8106 18.1919 86.8106 19.0559C86.3626 20.1119 85.7066 21.3759 84.8426 22.8479C84.5866 24.3199 84.4586 26.3839 84.4586 29.0399C84.4586 31.6959 84.7946 33.0239 85.4666 33.0239C86.2986 33.0239 88.3146 31.3599 91.5146 28.0319C92.0906 27.3919 92.5066 27.0719 92.7626 27.0719ZM70.1066 29.9519C70.1066 32.4159 71.0186 33.6479 72.8426 33.6479C74.7946 33.6159 76.4106 32.5759 77.6906 30.5279C78.1386 29.8239 78.5066 28.9599 78.7946 27.9359C78.7946 24.3519 79.1146 21.2799 79.7546 18.7199C77.1626 19.2319 74.9066 20.4799 72.9866 22.4639C71.0666 24.4479 70.1066 26.9439 70.1066 29.9519ZM96.9881 38.5439C93.7881 38.5439 92.1881 35.5519 92.1881 29.5679C92.1881 26.3039 92.5881 23.3439 93.3881 20.6879C94.6361 16.5919 96.0441 14.5439 97.6121 14.5439C98.5401 14.5439 99.2761 15.1679 99.8201 16.4159C100.268 17.3759 100.476 18.3199 100.444 19.2479C100.444 20.5279 100.06 22.7839 99.2921 26.0159C98.5561 28.8319 98.1881 30.5759 98.1881 31.2479C98.1881 31.9199 98.3481 32.3839 98.6681 32.6399C99.0201 32.8959 99.4201 33.0239 99.8681 33.0239C100.348 33.0239 100.94 32.7199 101.644 32.1119C102.348 31.5039 103.052 30.8479 103.756 30.1439C104.46 29.4079 105.1 28.7359 105.676 28.1279C106.284 27.5199 106.7 27.2159 106.924 27.2159C107.372 27.2159 107.596 27.7599 107.596 28.8479C107.596 31.0879 106.46 33.2799 104.188 35.4239C101.948 37.5359 99.5481 38.5759 96.9881 38.5439ZM98.9561 10.6559C98.0921 9.3759 97.6601 7.9999 97.6601 6.5279C97.6601 5.0559 97.8841 3.8399 98.3321 2.8799C98.8121 1.8879 99.2601 1.1679 99.6761 0.719901C100.092 0.239902 100.572 -9.82285e-05 101.116 -9.82285e-05C102.012 -9.82285e-05 102.828 0.671902 103.564 2.0159C104.3 3.3279 104.668 4.4319 104.668 5.3279C104.668 6.9919 104.076 8.3039 102.892 9.2639C101.74 10.1919 100.428 10.6559 98.9561 10.6559ZM111.581 14.4479C112.733 14.4479 113.821 15.5519 114.845 17.7599C116.349 16.1919 118.205 15.4079 120.413 15.4079C122.653 15.4079 124.333 15.9039 125.453 16.8959C126.573 17.8559 127.133 19.2319 127.133 21.0239C127.133 22.7839 126.893 24.5759 126.413 26.3999C125.965 28.2239 125.629 29.5359 125.405 30.3359C125.213 31.1039 125.117 31.7439 125.117 32.2559C125.117 32.7679 125.293 33.0239 125.645 33.0239C126.125 33.0239 126.717 32.7199 127.421 32.1119C128.125 31.5039 128.829 30.8479 129.533 30.1439C130.237 29.4079 130.877 28.7359 131.453 28.1279C132.061 27.5199 132.477 27.2159 132.701 27.2159C133.149 27.2159 133.373 27.7599 133.373 28.8479C133.373 31.0879 132.269 33.2479 130.061 35.3279C126.349 37.5039 123.981 38.5919 122.957 38.5919C122.861 38.5919 122.797 38.5759 122.765 38.5439C120.205 38.5439 118.925 36.4959 118.925 32.3999C118.925 30.6399 119.085 29.0239 119.405 27.5519C119.757 26.0799 120.013 25.0079 120.173 24.3359C120.333 23.6639 120.413 22.9759 120.413 22.2719C120.413 21.1199 119.741 20.5439 118.397 20.5439C117.085 20.5439 115.821 21.5359 114.605 23.5199C113.421 25.4719 112.621 27.5039 112.205 29.6159V29.9519C112.205 31.0399 112.365 32.1599 112.685 33.3119C113.037 34.4639 113.213 35.2639 113.213 35.7119C113.213 36.7999 111.853 37.8719 109.133 38.9279C108.717 39.0879 108.349 39.1679 108.029 39.1679C107.229 39.1679 106.669 38.7519 106.349 37.9199C106.061 37.0879 105.917 35.7919 105.917 34.0319C105.917 29.4879 106.093 26.2079 106.445 24.1919C106.925 21.1839 108.013 18.3839 109.709 15.7919C110.285 14.8959 110.909 14.4479 111.581 14.4479Z" fill="white" fill-opacity="0.1"/>
</g>
<defs>
<filter id="filter0_i_7_4" x="0" y="-1" width="135.373" height="52.552" filterUnits="userSpaceOnUse" color-interpolation-filters="sRGB">
<feFlood flood-opacity="0" result="BackgroundImageFix"/>
<feBlend mode="normal" in="SourceGraphic" in2="BackgroundImageFix" result="shape"/>
<feColorMatrix in="SourceAlpha" type="matrix" values="0 0 0 0 0 0 0 0 0 0 0 0 0 0 0 0 0 0 127 0" result="hardAlpha"/>
<feOffset dx="2" dy="-1"/>
<feGaussianBlur stdDeviation="50"/>
<feComposite in2="hardAlpha" operator="arithmetic" k2="-1" k3="1"/>
<feColorMatrix type="matrix" values="0 0 0 0 1 0 0 0 0 0 0 0 0 0 0.816667 0 0 0 0.92 0"/>
<feBlend mode="normal" in2="shape" result="effect1_innerShadow_7_4"/>
</filter>
</defs>
</svg>
